<svg width="1697" height="892" viewBox="0 0 1697 892" fill="none" xmlns="http://www.w3.org/2000/svg">
<rect x="282.5" y="660.5" width="518" height="211" fill="#CCE3F7" stroke="#0071D9" stroke-width="5" stroke-miterlimit="16" stroke-linejoin="round" stroke-dasharray="10 10"/>
<rect x="275.5" y="11.5" width="518" height="275" stroke="#0071D9" stroke-width="5" stroke-miterlimit="16" stroke-linejoin="round" stroke-dasharray="10 10"/>
<mask id="path-3-outside-1_632_90" maskUnits="userSpaceOnUse" x="278" y="348" width="513" height="229" fill="black">
<rect fill="white" x="278" y="348" width="513" height="229"/>
<path d="M278 353H791V572H278V353Z"/>
</mask>
<path d="M278 358H791V348H278V358ZM791 567H278V577H791V567Z" fill="#0071D9" mask="url(#path-3-outside-1_632_90)"/>
<mask id="path-5-outside-2_632_90" maskUnits="userSpaceOnUse" x="273" y="353" width="523" height="219" fill="black">
<rect fill="white" x="273" y="353" width="523" height="219"/>
<path d="M278 353H791V572H278V353Z"/>
</mask>
<path d="M275.5 353V357.977H280.5V353H275.5ZM275.5 367.932V377.886H280.5V367.932H275.5ZM275.5 387.841V397.795H280.5V387.841H275.5ZM275.5 407.75V417.705H280.5V407.75H275.5ZM275.5 427.659V437.614H280.5V427.659H275.5ZM275.5 447.568V457.523H280.5V447.568H275.5ZM275.5 467.477V477.432H280.5V467.477H275.5ZM275.5 487.386V497.341H280.5V487.386H275.5ZM275.5 507.295V517.25H280.5V507.295H275.5ZM275.5 527.205V537.159H280.5V527.205H275.5ZM275.5 547.114V557.068H280.5V547.114H275.5ZM275.5 567.023V572H280.5V567.023H275.5ZM793.5 572V567.023H788.5V572H793.5ZM793.5 557.068V547.114H788.5V557.068H793.5ZM793.5 537.159V527.205H788.5V537.159H793.5ZM793.5 517.25V507.295H788.5V517.25H793.5ZM793.5 497.341V487.386H788.5V497.341H793.5ZM793.5 477.432V467.477H788.5V477.432H793.5ZM793.5 457.523V447.568H788.5V457.523H793.5ZM793.5 437.614V427.659H788.5V437.614H793.5ZM793.5 417.705V407.75H788.5V417.705H793.5ZM793.5 397.795V387.841H788.5V397.795H793.5ZM793.5 377.886V367.932H788.5V377.886H793.5ZM793.5 357.977V353H788.5V357.977H793.5ZM273 353V357.977H283V353H273ZM273 367.932V377.886H283V367.932H273ZM273 387.841V397.795H283V387.841H273ZM273 407.75V417.705H283V407.75H273ZM273 427.659V437.614H283V427.659H273ZM273 447.568V457.523H283V447.568H273ZM273 467.477V477.432H283V467.477H273ZM273 487.386V497.341H283V487.386H273ZM273 507.295V517.25H283V507.295H273ZM273 527.205V537.159H283V527.205H273ZM273 547.114V557.068H283V547.114H273ZM273 567.023V572H283V567.023H273ZM796 572V567.023H786V572H796ZM796 557.068V547.114H786V557.068H796ZM796 537.159V527.205H786V537.159H796ZM796 517.25V507.295H786V517.25H796ZM796 497.341V487.386H786V497.341H796ZM796 477.432V467.477H786V477.432H796ZM796 457.523V447.568H786V457.523H796ZM796 437.614V427.659H786V437.614H796ZM796 417.705V407.75H786V417.705H796ZM796 397.795V387.841H786V397.795H796ZM796 377.886V367.932H786V377.886H796ZM796 357.977V353H786V357.977H796Z" fill="#0071D9" mask="url(#path-5-outside-2_632_90)"/>
<rect x="289.5" y="667.5" width="504" height="197" stroke="#0071D9" stroke-width="3"/>
<rect x="292.5" y="56.5" width="485" height="184" stroke="#0071D9" stroke-width="3"/>
<rect x="292.5" y="370.5" width="485" height="184" stroke="#0071D9" stroke-width="3"/>
<rect x="1051.5" y="18.5" width="518" height="211" stroke="#0071D9" stroke-width="5" stroke-miterlimit="16" stroke-linejoin="round" stroke-dasharray="10 10"/>
<rect x="1051.5" y="339.5" width="518" height="211" stroke="#0071D9" stroke-width="5" stroke-miterlimit="16" stroke-linejoin="round" stroke-dasharray="10 10"/>
<rect x="1058.5" y="25.5" width="239" height="197" stroke="#0071D9" stroke-width="3"/>
<rect x="1191.5" y="346.5" width="239" height="197" stroke="#0071D9" stroke-width="3"/>
<rect x="1068.5" y="654.5" width="518" height="211" stroke="#0071D9" stroke-width="5" stroke-miterlimit="16" stroke-linejoin="round" stroke-dasharray="10 10"/>
<rect x="1075.5" y="661.5" width="504" height="197" stroke="#0071D9" stroke-width="3"/>
<rect x="1219" y="663" width="32" height="194" fill="#CCE3F7"/>
<rect x="1404" y="663" width="32" height="194" fill="#CCE3F7"/>
<path d="M82.0632 154.776H76.1592V165H70.0632V135.528H82.0632C88.3032 135.528 92.4312 138.888 92.4312 145.176C92.4312 151.416 88.3032 154.776 82.0632 154.776ZM86.3832 145.176C86.3832 142.536 84.8472 140.76 81.6792 140.76H76.1592V149.544H81.6792C84.8472 149.544 86.3832 147.72 86.3832 145.176ZM112.833 165H107.121V163.848C106.401 164.568 104.241 165.384 101.889 165.384C97.569 165.384 93.921 162.888 93.921 158.424C93.921 154.344 97.569 151.56 102.225 151.56C104.097 151.56 106.257 152.184 107.121 152.808V151.224C107.121 149.4 106.017 147.912 103.617 147.912C101.937 147.912 100.929 148.68 100.449 149.928H94.785C95.409 146.04 98.913 143.064 103.809 143.064C109.521 143.064 112.833 146.184 112.833 151.32V165ZM107.121 159.144V157.608C106.593 156.456 104.961 155.736 103.233 155.736C101.361 155.736 99.441 156.552 99.441 158.376C99.441 160.248 101.361 161.016 103.233 161.016C104.961 161.016 106.593 160.296 107.121 159.144ZM131.246 165V163.224C130.286 164.376 128.174 165.48 125.87 165.48C119.63 165.48 116.126 160.44 116.126 154.296C116.126 148.152 119.63 143.064 125.87 143.064C128.174 143.064 130.286 144.168 131.246 145.32V133.8H137.246V165H131.246ZM131.246 157.8V150.744C130.574 149.304 128.942 148.248 127.214 148.248C123.998 148.248 122.078 150.84 122.078 154.296C122.078 157.704 123.998 160.296 127.214 160.296C128.99 160.296 130.574 159.288 131.246 157.8ZM155.937 165V163.224C154.977 164.376 152.865 165.48 150.561 165.48C144.321 165.48 140.817 160.44 140.817 154.296C140.817 148.152 144.321 143.064 150.561 143.064C152.865 143.064 154.977 144.168 155.937 145.32V133.8H161.937V165H155.937ZM155.937 157.8V150.744C155.265 149.304 153.633 148.248 151.905 148.248C148.689 148.248 146.769 150.84 146.769 154.296C146.769 157.704 148.689 160.296 151.905 160.296C153.681 160.296 155.265 159.288 155.937 157.8ZM172.803 143.544V165H166.851V143.544H172.803ZM173.331 137.352C173.331 139.368 171.699 140.76 169.827 140.76C167.907 140.76 166.275 139.368 166.275 137.352C166.275 135.384 167.907 133.944 169.827 133.944C171.699 133.944 173.331 135.384 173.331 137.352ZM177.808 165V143.544H183.76V145.512C184.912 144.168 187.024 143.064 189.52 143.064C194.368 143.064 197.104 146.232 197.104 150.984V165H191.152V152.232C191.152 149.976 190 148.44 187.648 148.44C185.824 148.44 184.24 149.544 183.76 151.416V165H177.808ZM215.522 163.56V162.312C214.562 163.464 212.594 164.52 210.242 164.52C204.05 164.52 200.498 159.528 200.498 153.768C200.498 148.056 204.05 143.064 210.242 143.064C212.594 143.064 214.562 144.12 215.522 145.224V143.544H221.426V162.648C221.426 169.992 216.962 173.4 210.914 173.4C205.346 173.4 201.554 170.568 200.93 165.768H206.69C207.17 167.784 208.61 168.792 210.914 168.792C213.938 168.792 215.522 167.016 215.522 163.56ZM215.522 157.272V150.264C214.802 149.064 213.266 148.056 211.49 148.056C208.322 148.056 206.45 150.456 206.45 153.768C206.45 157.128 208.322 159.528 211.49 159.528C213.266 159.528 214.802 158.52 215.522 157.272Z" fill="#0071D9"/>
<path d="M904.615 135.528H909.415L914.503 155.352L919.351 135.528H925.399L917.719 165H912.103L906.919 145.56L901.735 165H896.119L888.439 135.528H894.631L899.431 155.352L904.615 135.528ZM934.316 143.544V165H928.364V143.544H934.316ZM934.844 137.352C934.844 139.368 933.212 140.76 931.34 140.76C929.42 140.76 927.788 139.368 927.788 137.352C927.788 135.384 929.42 133.944 931.34 133.944C933.212 133.944 934.844 135.384 934.844 137.352ZM953.096 165V163.224C952.136 164.376 950.024 165.48 947.72 165.48C941.48 165.48 937.976 160.44 937.976 154.296C937.976 148.152 941.48 143.064 947.72 143.064C950.024 143.064 952.136 144.168 953.096 145.32V133.8H959.096V165H953.096ZM953.096 157.8V150.744C952.424 149.304 950.792 148.248 949.064 148.248C945.848 148.248 943.928 150.84 943.928 154.296C943.928 157.704 945.848 160.296 949.064 160.296C950.84 160.296 952.424 159.288 953.096 157.8ZM965.307 158.52V148.344H962.043V143.544H965.307V137.736H971.211V143.544H975.915V148.344H971.211V157.752C971.211 159.432 972.123 160.2 973.659 160.2C974.571 160.2 975.579 159.912 976.251 159.48V164.76C975.435 165.192 973.995 165.432 972.411 165.432C968.043 165.432 965.307 163.272 965.307 158.52ZM980.358 165V133.8H986.31V145.512C987.462 144.168 989.574 143.064 992.07 143.064C996.918 143.064 999.654 146.232 999.654 150.984V165H993.702V152.232C993.702 149.976 992.55 148.44 990.198 148.44C988.374 148.44 986.79 149.544 986.31 151.416V165H980.358Z" fill="#0071D9"/>
<path d="M867.982 460.64H874.318C874.558 463.328 875.998 464.912 878.638 464.912C881.758 464.912 883.198 463.088 883.198 459.296V440.528H889.342V459.344C889.342 466.832 885.022 470.48 878.686 470.48C872.014 470.48 868.366 466.4 867.982 460.64ZM913.084 448.544V470H907.132V468.032C905.932 469.376 903.868 470.48 901.372 470.48C896.572 470.48 893.836 467.312 893.836 462.56V448.544H899.788V461.36C899.788 463.616 900.892 465.152 903.244 465.152C905.068 465.152 906.652 464.048 907.084 462.176V448.544H913.084ZM916.625 463.616H922.529C923.009 465.152 924.353 465.968 926.129 465.968C927.953 465.968 929.153 465.248 929.153 463.856C929.153 462.896 928.481 462.416 926.993 462.032L922.673 461.072C919.409 460.304 917.105 458.624 917.105 455.024C917.105 450.848 920.849 448.064 925.649 448.064C931.073 448.064 934.049 450.656 934.769 454.688H929.105C928.721 453.488 927.713 452.576 925.745 452.576C924.305 452.576 922.913 453.248 922.913 454.592C922.913 455.456 923.489 455.936 924.833 456.272L929.249 457.28C932.993 458.192 934.961 460.256 934.961 463.52C934.961 467.888 931.169 470.48 926.177 470.48C920.945 470.48 917.249 467.984 916.625 463.616ZM940.066 463.52V453.344H936.802V448.544H940.066V442.736H945.97V448.544H950.674V453.344H945.97V462.752C945.97 464.432 946.882 465.2 948.418 465.2C949.33 465.2 950.338 464.912 951.01 464.48V469.76C950.194 470.192 948.754 470.432 947.17 470.432C942.802 470.432 940.066 468.272 940.066 463.52ZM961.069 448.544V470H955.117V448.544H961.069ZM961.597 442.352C961.597 444.368 959.965 445.76 958.093 445.76C956.173 445.76 954.541 444.368 954.541 442.352C954.541 440.384 956.173 438.944 958.093 438.944C959.965 438.944 961.597 440.384 961.597 442.352ZM978.649 438.944V443.984C978.025 443.552 977.257 443.408 976.537 443.408C974.713 443.408 973.609 444.416 973.609 446.384V448.544H978.073V453.344H973.609V470H967.753V453.344H964.249V448.544H967.753V446C967.753 441.152 970.777 438.368 975.337 438.368C976.729 438.368 977.785 438.56 978.649 438.944ZM990.177 477.92H984.321L987.441 470.096L979.233 448.544H985.521L990.465 462.8L995.361 448.544H1001.36L990.177 477.92Z" fill="#0071D9"/>
<path d="M947.425 762.44H941.809V757.544H953.425V760.136C953.425 768.296 948.049 773.48 940.609 773.48C932.401 773.48 926.401 767.288 926.401 758.264C926.401 749.24 932.449 743.048 940.465 743.048C947.569 743.048 951.841 747.128 952.945 753.032H946.753C945.697 750.248 943.873 748.52 940.465 748.52C935.617 748.52 932.641 752.6 932.641 758.264C932.641 763.976 935.665 768.056 940.609 768.056C944.401 768.056 946.753 765.8 947.425 762.44ZM975.064 773H969.352V771.848C968.632 772.568 966.472 773.384 964.12 773.384C959.8 773.384 956.152 770.888 956.152 766.424C956.152 762.344 959.8 759.56 964.456 759.56C966.328 759.56 968.488 760.184 969.352 760.808V759.224C969.352 757.4 968.248 755.912 965.848 755.912C964.168 755.912 963.16 756.68 962.68 757.928H957.016C957.64 754.04 961.144 751.064 966.04 751.064C971.752 751.064 975.064 754.184 975.064 759.32V773ZM969.352 767.144V765.608C968.824 764.456 967.192 763.736 965.464 763.736C963.592 763.736 961.672 764.552 961.672 766.376C961.672 768.248 963.592 769.016 965.464 769.016C967.192 769.016 968.824 768.296 969.352 767.144ZM985.653 771.224V780.92H979.701V751.544H985.653V753.32C986.613 752.168 988.725 751.064 991.029 751.064C997.269 751.064 1000.82 756.248 1000.82 762.296C1000.82 768.344 997.269 773.48 991.029 773.48C988.725 773.48 986.613 772.376 985.653 771.224ZM985.653 758.744V765.8C986.373 767.288 987.957 768.296 989.685 768.296C992.901 768.296 994.821 765.704 994.821 762.296C994.821 758.84 992.901 756.248 989.685 756.248C987.909 756.248 986.373 757.304 985.653 758.744Z" fill="#0071D9"/>
<path d="M114.613 463.784C117.397 464.696 119.413 467.432 119.413 470.648C119.413 476.072 115.669 479 109.525 479H97.2851V449.528H108.565C114.709 449.528 118.501 452.264 118.501 457.544C118.501 460.712 116.773 463.016 114.613 463.784ZM103.189 461.624H108.181C111.109 461.624 112.645 460.472 112.645 458.12C112.645 455.768 111.109 454.712 108.181 454.712H103.189V461.624ZM103.189 466.424V473.816H108.997C111.877 473.816 113.413 472.376 113.413 470.12C113.413 467.816 111.877 466.424 108.997 466.424H103.189ZM143.056 468.296C143.056 474.872 138.784 479.48 132.544 479.48C126.304 479.48 122.032 474.872 122.032 468.296C122.032 461.672 126.304 457.064 132.544 457.064C138.784 457.064 143.056 461.672 143.056 468.296ZM137.152 468.296C137.152 464.696 135.52 462.104 132.544 462.104C129.568 462.104 127.936 464.696 127.936 468.296C127.936 471.848 129.568 474.44 132.544 474.44C135.52 474.44 137.152 471.848 137.152 468.296ZM159.669 457.448V463.4C158.853 462.92 157.797 462.68 156.693 462.68C154.677 462.68 153.045 463.736 152.613 465.704V479H146.661V457.544H152.613V459.656C153.525 458.12 155.301 457.064 157.413 457.064C158.421 457.064 159.333 457.256 159.669 457.448ZM176.549 479V477.224C175.589 478.376 173.477 479.48 171.173 479.48C164.933 479.48 161.429 474.44 161.429 468.296C161.429 462.152 164.933 457.064 171.173 457.064C173.477 457.064 175.589 458.168 176.549 459.32V447.8H182.549V479H176.549ZM176.549 471.8V464.744C175.877 463.304 174.245 462.248 172.517 462.248C169.301 462.248 167.381 464.84 167.381 468.296C167.381 471.704 169.301 474.296 172.517 474.296C174.293 474.296 175.877 473.288 176.549 471.8ZM200.52 471.992H206.04C205.272 476.552 201.912 479.48 196.536 479.48C190.296 479.48 186.12 474.92 186.12 468.296C186.12 461.816 190.44 457.064 196.44 457.064C202.728 457.064 206.184 461.432 206.184 467.72V469.544H191.88C192.072 472.76 193.896 474.68 196.536 474.68C198.552 474.68 200.04 473.816 200.52 471.992ZM196.488 461.912C194.184 461.912 192.552 463.304 192.024 465.944H200.328C200.28 463.688 198.936 461.912 196.488 461.912ZM222.772 457.448V463.4C221.956 462.92 220.9 462.68 219.796 462.68C217.78 462.68 216.148 463.736 215.716 465.704V479H209.764V457.544H215.716V459.656C216.628 458.12 218.404 457.064 220.516 457.064C221.524 457.064 222.436 457.256 222.772 457.448Z" fill="#0071D9"/>
<path d="M20.46 766.784C23.244 767.696 25.26 770.432 25.26 773.648C25.26 779.072 21.516 782 15.372 782H3.132V752.528H14.412C20.556 752.528 24.348 755.264 24.348 760.544C24.348 763.712 22.62 766.016 20.46 766.784ZM9.036 764.624H14.028C16.956 764.624 18.492 763.472 18.492 761.12C18.492 758.768 16.956 757.712 14.028 757.712H9.036V764.624ZM9.036 769.424V776.816H14.844C17.724 776.816 19.26 775.376 19.26 773.12C19.26 770.816 17.724 769.424 14.844 769.424H9.036ZM46.8393 782H41.1273V780.848C40.4073 781.568 38.2473 782.384 35.8953 782.384C31.5753 782.384 27.9273 779.888 27.9273 775.424C27.9273 771.344 31.5753 768.56 36.2313 768.56C38.1033 768.56 40.2633 769.184 41.1273 769.808V768.224C41.1273 766.4 40.0233 764.912 37.6233 764.912C35.9433 764.912 34.9353 765.68 34.4553 766.928H28.7913C29.4153 763.04 32.9193 760.064 37.8153 760.064C43.5273 760.064 46.8393 763.184 46.8393 768.32V782ZM41.1273 776.144V774.608C40.5993 773.456 38.9673 772.736 37.2393 772.736C35.3673 772.736 33.4473 773.552 33.4473 775.376C33.4473 777.248 35.3673 778.016 37.2393 778.016C38.9673 778.016 40.5993 777.296 41.1273 776.144ZM50.1324 771.296C50.1324 764.624 54.3564 760.064 60.4524 760.064C65.8284 760.064 69.2364 763.232 69.8604 767.792H64.0044C63.6684 766.16 62.3724 765.152 60.4524 765.152C57.7164 765.152 56.0364 767.648 56.0364 771.296C56.0364 774.896 57.7164 777.392 60.4524 777.392C62.3724 777.392 63.6684 776.384 64.0044 774.752H69.8604C69.2364 779.36 65.8284 782.48 60.4524 782.48C54.3564 782.48 50.1324 777.92 50.1324 771.296ZM87.2756 782L80.9876 773.36L79.2596 775.232V782H73.3076V750.8H79.2596V768.512L86.6036 760.544H93.9956L85.3076 769.664L94.3316 782H87.2756ZM110.46 780.56V779.312C109.5 780.464 107.532 781.52 105.18 781.52C98.9875 781.52 95.4355 776.528 95.4355 770.768C95.4355 765.056 98.9875 760.064 105.18 760.064C107.532 760.064 109.5 761.12 110.46 762.224V760.544H116.364V779.648C116.364 786.992 111.9 790.4 105.852 790.4C100.284 790.4 96.4915 787.568 95.8675 782.768H101.628C102.108 784.784 103.548 785.792 105.852 785.792C108.876 785.792 110.46 784.016 110.46 780.56ZM110.46 774.272V767.264C109.74 766.064 108.204 765.056 106.428 765.056C103.26 765.056 101.388 767.456 101.388 770.768C101.388 774.128 103.26 776.528 106.428 776.528C108.204 776.528 109.74 775.52 110.46 774.272ZM134.338 760.448V766.4C133.522 765.92 132.466 765.68 131.362 765.68C129.346 765.68 127.714 766.736 127.282 768.704V782H121.33V760.544H127.282V762.656C128.194 761.12 129.97 760.064 132.082 760.064C133.09 760.064 134.002 760.256 134.338 760.448ZM157.122 771.296C157.122 777.872 152.85 782.48 146.61 782.48C140.37 782.48 136.098 777.872 136.098 771.296C136.098 764.672 140.37 760.064 146.61 760.064C152.85 760.064 157.122 764.672 157.122 771.296ZM151.218 771.296C151.218 767.696 149.586 765.104 146.61 765.104C143.634 765.104 142.002 767.696 142.002 771.296C142.002 774.848 143.634 777.44 146.61 777.44C149.586 777.44 151.218 774.848 151.218 771.296ZM179.734 760.544V782H173.782V780.032C172.582 781.376 170.518 782.48 168.022 782.48C163.222 782.48 160.486 779.312 160.486 774.56V760.544H166.438V773.36C166.438 775.616 167.542 777.152 169.894 777.152C171.718 777.152 173.302 776.048 173.734 774.176V760.544H179.734ZM184.667 782V760.544H190.619V762.512C191.771 761.168 193.883 760.064 196.379 760.064C201.227 760.064 203.963 763.232 203.963 767.984V782H198.011V769.232C198.011 766.976 196.859 765.44 194.507 765.44C192.683 765.44 191.099 766.544 190.619 768.416V782H184.667ZM222.477 782V780.224C221.517 781.376 219.405 782.48 217.101 782.48C210.861 782.48 207.357 777.44 207.357 771.296C207.357 765.152 210.861 760.064 217.101 760.064C219.405 760.064 221.517 761.168 222.477 762.32V750.8H228.477V782H222.477ZM222.477 774.8V767.744C221.805 766.304 220.173 765.248 218.445 765.248C215.229 765.248 213.309 767.84 213.309 771.296C213.309 774.704 215.229 777.296 218.445 777.296C220.221 777.296 221.805 776.288 222.477 774.8Z" fill="#0071D9"/>
</svg>
