<svg width="1728" height="1422" viewBox="0 0 1728 1422" fill="none" xmlns="http://www.w3.org/2000/svg">
<rect x="97.5" y="954.5" width="518" height="443" stroke="#0071D9" stroke-width="5" stroke-miterlimit="16" stroke-linejoin="round" stroke-dasharray="10 10"/>
<rect x="167.5" y="1005.5" width="377" height="341" stroke="#0071D9" stroke-width="3"/>
<rect x="97.5" y="74.5" width="518" height="211" stroke="#0071D9" stroke-width="5" stroke-miterlimit="16" stroke-linejoin="round" stroke-dasharray="10 10"/>
<rect x="97.5" y="770.5" width="518" height="169" stroke="#0071D9" stroke-width="5" stroke-miterlimit="16" stroke-linejoin="round" stroke-dasharray="10 10"/>
<rect x="165.5" y="96.5" width="383" height="167" stroke="#0071D9" stroke-width="3"/>
<rect x="171.82" y="103.455" width="368.578" height="153.089" stroke="#F2994A" stroke-width="5" stroke-miterlimit="16" stroke-linejoin="round" stroke-dasharray="10 10" style="mix-blend-mode:multiply"/>
<rect x="181.428" y="112.028" width="350.385" height="135.944" stroke="#F2994A" stroke-width="3"/>
<rect x="230.5" y="808.5" width="254" height="90" stroke="#0071D9" stroke-width="3"/>
<rect x="241.5" y="818.5" width="229" height="70" fill="#F2994A" fill-opacity="0.25"/>
<rect x="241.5" y="818.5" width="229" height="70" stroke="#F2994A" stroke-width="5" stroke-miterlimit="16" stroke-linejoin="round" stroke-dasharray="10 10" style="mix-blend-mode:multiply"/>
<rect x="266.5" y="834.5" width="180" height="40" stroke="#F2994A" stroke-width="3"/>
<rect x="175.5" y="1017.5" width="358" height="75" stroke="#F2994A" stroke-width="5" stroke-miterlimit="16" stroke-linejoin="round" stroke-dasharray="10 10" style="mix-blend-mode:multiply"/>
<rect x="183.5" y="1024.5" width="343" height="62" stroke="#F2994A" stroke-width="3"/>
<rect x="176.5" y="1132.5" width="358" height="79.4408" stroke="#F2994A" stroke-width="5" stroke-miterlimit="16" stroke-linejoin="round" stroke-dasharray="10 10" style="mix-blend-mode:multiply"/>
<rect x="176.5" y="1251.5" width="358" height="79.4408" stroke="#F2994A" stroke-width="5" stroke-miterlimit="16" stroke-linejoin="round" stroke-dasharray="10 10" style="mix-blend-mode:multiply"/>
<rect x="184.5" y="1139.5" width="343" height="66" stroke="#F2994A" stroke-width="3"/>
<rect x="184.5" y="1258.5" width="343" height="66" stroke="#F2994A" stroke-width="3"/>
<rect x="104.5" y="545.5" width="504" height="197" fill="#CCE3F7" stroke="#0071D9" stroke-width="3"/>
<rect x="97.5" y="538.5" width="518" height="211" fill="#CCE3F7" stroke="#0071D9" stroke-width="5" stroke-miterlimit="16" stroke-linejoin="round" stroke-dasharray="10 10"/>
<rect x="114.5" y="553.5" width="140" height="181" fill="#CCE3F7"/>
<rect x="114.5" y="553.5" width="140" height="181" stroke="#F2994A" stroke-width="5" stroke-miterlimit="16" stroke-linejoin="round" stroke-dasharray="10 10" style="mix-blend-mode:multiply"/>
<rect x="122.5" y="563.5" width="124" height="163" fill="#CCE3F7" stroke="#F2994A" stroke-width="3"/>
<rect x="286.5" y="554.5" width="140" height="181" fill="#CCE3F7"/>
<rect x="286.5" y="554.5" width="140" height="181" stroke="#F2994A" stroke-width="5" stroke-miterlimit="16" stroke-linejoin="round" stroke-dasharray="10 10" style="mix-blend-mode:multiply"/>
<rect x="294.5" y="564.5" width="124" height="163" fill="#CCE3F7" stroke="#F2994A" stroke-width="3"/>
<rect x="458.5" y="553.5" width="140" height="181" fill="#CCE3F7"/>
<rect x="458.5" y="553.5" width="140" height="181" stroke="#F2994A" stroke-width="5" stroke-miterlimit="16" stroke-linejoin="round" stroke-dasharray="10 10" style="mix-blend-mode:multiply"/>
<rect x="466.5" y="563.5" width="124" height="163" fill="#CCE3F7" stroke="#F2994A" stroke-width="3"/>
<rect x="97.5" y="306.5" width="518" height="211" stroke="#0071D9" stroke-width="5" stroke-miterlimit="16" stroke-linejoin="round" stroke-dasharray="10 10"/>
<rect x="165.5" y="327.5" width="383" height="169" stroke="#0071D9" stroke-width="3"/>
<rect x="172.843" y="334.315" width="174.345" height="155.37" stroke="#F2994A" stroke-width="5" stroke-miterlimit="16" stroke-linejoin="round" stroke-dasharray="10 10" style="mix-blend-mode:multiply"/>
<rect x="180.518" y="343.004" width="159.832" height="137.992" stroke="#F2994A" stroke-width="3"/>
<rect x="366.256" y="334.315" width="174.345" height="155.37" stroke="#F2994A" stroke-width="5" stroke-miterlimit="16" stroke-linejoin="round" stroke-dasharray="10 10" style="mix-blend-mode:multiply"/>
<rect x="373.93" y="343.004" width="159.832" height="137.992" stroke="#F2994A" stroke-width="3"/>
</svg>
