<svg width="1728" height="1117" viewBox="0 0 1728 1117" fill="none" xmlns="http://www.w3.org/2000/svg">
<rect x="164.5" y="23.5" width="700" height="197" stroke="#0071D9" stroke-width="3"/>
<rect x="990.5" y="23.5" width="700" height="197" stroke="#0071D9" stroke-width="3"/>
<rect x="990.5" y="233.5" width="700" height="197" stroke="#0071D9" stroke-width="3"/>
<rect x="990.5" y="443.5" width="700" height="197" stroke="#0071D9" stroke-width="3"/>
<rect x="990.5" y="653.5" width="700" height="197" stroke="#0071D9" stroke-width="3"/>
<rect x="990.5" y="863.5" width="700" height="197" stroke="#0071D9" stroke-width="3"/>
<rect x="196.5" y="280.5" width="191" height="161" stroke="#F2994A" stroke-width="3"/>
<rect x="1140.5" y="41.5" width="191" height="161" stroke="#F2994A" stroke-width="3"/>
<rect x="1105.5" y="671.5" width="237" height="161" stroke="#F2994A" stroke-width="3"/>
<rect x="1087.5" y="879.5" width="118" height="161" stroke="#F2994A" stroke-width="3"/>
<rect x="1220.5" y="879.5" width="118" height="161" stroke="#F2994A" stroke-width="3"/>
<rect x="1361.5" y="879.5" width="252" height="66" stroke="#F2994A" stroke-width="3"/>
<rect x="1087.5" y="251.5" width="504" height="161" stroke="#F2994A" stroke-width="3"/>
<rect x="1065.5" y="461.5" width="129" height="161" stroke="#F2994A" stroke-width="3"/>
<rect x="1212.5" y="461.5" width="129" height="161" stroke="#F2994A" stroke-width="3"/>
<rect x="1359.5" y="461.5" width="129" height="161" stroke="#F2994A" stroke-width="3"/>
<rect x="1506.5" y="461.5" width="129" height="161" stroke="#F2994A" stroke-width="3"/>
<rect x="1348.5" y="41.5" width="191" height="161" stroke="#F2994A" stroke-width="3"/>
<rect x="1358.5" y="671.5" width="236" height="161" stroke="#F2994A" stroke-width="3"/>
<rect x="418.5" y="280.5" width="191" height="161" stroke="#F2994A" stroke-width="3"/>
<rect x="196.5" y="478.5" width="191" height="161" stroke="#F2994A" stroke-width="3"/>
<rect x="418.5" y="478.5" width="191" height="161" stroke="#F2994A" stroke-width="3"/>
<rect x="637.5" y="478.5" width="191" height="161" stroke="#F2994A" stroke-width="3"/>
<rect x="637.5" y="675.5" width="191" height="161" stroke="#F2994A" stroke-width="3"/>
<rect x="196.5" y="676.5" width="191" height="161" stroke="#F2994A" stroke-width="3"/>
<rect x="196.5" y="874.5" width="191" height="161" stroke="#F2994A" stroke-width="3"/>
<rect x="418.5" y="676.5" width="191" height="161" stroke="#F2994A" stroke-width="3"/>
<rect x="418.5" y="874.5" width="191" height="161" stroke="#F2994A" stroke-width="3"/>
<rect x="640.5" y="280.5" width="191" height="161" stroke="#F2994A" stroke-width="3"/>
<path d="M3.75388 139V109.528H9.89788V133.576H23.6259V139H3.75388ZM45.258 139H39.546V137.848C38.826 138.568 36.666 139.384 34.314 139.384C29.994 139.384 26.346 136.888 26.346 132.424C26.346 128.344 29.994 125.56 34.65 125.56C36.522 125.56 38.682 126.184 39.546 126.808V125.224C39.546 123.4 38.442 121.912 36.042 121.912C34.362 121.912 33.354 122.68 32.874 123.928H27.21C27.834 120.04 31.338 117.064 36.234 117.064C41.946 117.064 45.258 120.184 45.258 125.32V139ZM39.546 133.144V131.608C39.018 130.456 37.386 129.736 35.658 129.736C33.786 129.736 31.866 130.552 31.866 132.376C31.866 134.248 33.786 135.016 35.658 135.016C37.386 135.016 39.018 134.296 39.546 133.144ZM58.2617 146.92H52.4057L55.5257 139.096L47.3177 117.544H53.6057L58.5497 131.8L63.4457 117.544H69.4458L58.2617 146.92ZM91.5001 128.296C91.5001 134.872 87.2281 139.48 80.9881 139.48C74.7481 139.48 70.4761 134.872 70.4761 128.296C70.4761 121.672 74.7481 117.064 80.9881 117.064C87.2281 117.064 91.5001 121.672 91.5001 128.296ZM85.5961 128.296C85.5961 124.696 83.9641 122.104 80.9881 122.104C78.0121 122.104 76.3801 124.696 76.3801 128.296C76.3801 131.848 78.0121 134.44 80.9881 134.44C83.9641 134.44 85.5961 131.848 85.5961 128.296ZM114.112 117.544V139H108.16V137.032C106.96 138.376 104.896 139.48 102.4 139.48C97.6005 139.48 94.8645 136.312 94.8645 131.56V117.544H100.816V130.36C100.816 132.616 101.92 134.152 104.272 134.152C106.096 134.152 107.68 133.048 108.112 131.176V117.544H114.112ZM120.341 132.52V122.344H117.077V117.544H120.341V111.736H126.245V117.544H130.949V122.344H126.245V131.752C126.245 133.432 127.157 134.2 128.693 134.2C129.605 134.2 130.613 133.912 131.285 133.48V138.76C130.469 139.192 129.029 139.432 127.445 139.432C123.077 139.432 120.341 137.272 120.341 132.52Z" fill="#0071D9"/>
<path d="M9.20299 330.576H13.283C18.899 330.576 21.971 326.976 21.971 321.264C21.971 315.504 18.899 311.904 13.283 311.904H9.20299V330.576ZM3.10699 336V306.528H13.523C22.451 306.528 28.067 312.288 28.067 321.264C28.067 330.24 22.451 336 13.523 336H3.10699ZM37.869 314.544V336H31.917V314.544H37.869ZM38.397 308.352C38.397 310.368 36.765 311.76 34.893 311.76C32.973 311.76 31.341 310.368 31.341 308.352C31.341 306.384 32.973 304.944 34.893 304.944C36.765 304.944 38.397 306.384 38.397 308.352ZM41.4812 329.616H47.3852C47.8652 331.152 49.2092 331.968 50.9852 331.968C52.8092 331.968 54.0092 331.248 54.0092 329.856C54.0092 328.896 53.3372 328.416 51.8492 328.032L47.5292 327.072C44.2652 326.304 41.9612 324.624 41.9612 321.024C41.9612 316.848 45.7052 314.064 50.5052 314.064C55.9292 314.064 58.9052 316.656 59.6252 320.688H53.9612C53.5772 319.488 52.5692 318.576 50.6012 318.576C49.1612 318.576 47.7692 319.248 47.7692 320.592C47.7692 321.456 48.3452 321.936 49.6892 322.272L54.1052 323.28C57.8492 324.192 59.8172 326.256 59.8172 329.52C59.8172 333.888 56.0252 336.48 51.0332 336.48C45.8012 336.48 42.1052 333.984 41.4812 329.616ZM69.5784 334.224V343.92H63.6264V314.544H69.5784V316.32C70.5384 315.168 72.6504 314.064 74.9544 314.064C81.1944 314.064 84.7464 319.248 84.7464 325.296C84.7464 331.344 81.1944 336.48 74.9544 336.48C72.6504 336.48 70.5384 335.376 69.5784 334.224ZM69.5784 321.744V328.8C70.2984 330.288 71.8824 331.296 73.6104 331.296C76.8264 331.296 78.7464 328.704 78.7464 325.296C78.7464 321.84 76.8264 319.248 73.6104 319.248C71.8344 319.248 70.2984 320.304 69.5784 321.744ZM94.269 304.8V336H88.317V304.8H94.269ZM116.889 336H111.177V334.848C110.457 335.568 108.297 336.384 105.945 336.384C101.625 336.384 97.9772 333.888 97.9772 329.424C97.9772 325.344 101.625 322.56 106.281 322.56C108.153 322.56 110.313 323.184 111.177 323.808V322.224C111.177 320.4 110.073 318.912 107.673 318.912C105.993 318.912 104.985 319.68 104.505 320.928H98.8412C99.4652 317.04 102.969 314.064 107.865 314.064C113.577 314.064 116.889 317.184 116.889 322.32V336ZM111.177 330.144V328.608C110.649 327.456 109.017 326.736 107.289 326.736C105.417 326.736 103.497 327.552 103.497 329.376C103.497 331.248 105.417 332.016 107.289 332.016C109.017 332.016 110.649 331.296 111.177 330.144ZM129.893 343.92H124.037L127.157 336.096L118.949 314.544H125.237L130.181 328.8L135.077 314.544H141.077L129.893 343.92ZM142.247 329.616H148.151C148.631 331.152 149.975 331.968 151.751 331.968C153.575 331.968 154.775 331.248 154.775 329.856C154.775 328.896 154.103 328.416 152.615 328.032L148.295 327.072C145.031 326.304 142.727 324.624 142.727 321.024C142.727 316.848 146.471 314.064 151.271 314.064C156.695 314.064 159.671 316.656 160.391 320.688H154.727C154.343 319.488 153.335 318.576 151.367 318.576C149.927 318.576 148.535 319.248 148.535 320.592C148.535 321.456 149.111 321.936 150.455 322.272L154.871 323.28C158.615 324.192 160.583 326.256 160.583 329.52C160.583 333.888 156.791 336.48 151.799 336.48C146.567 336.48 142.871 333.984 142.247 329.616Z" fill="#F2994A"/>
<path d="M260.613 355.936V352.352H277.381V355.936H271.045V372H266.917V355.936H260.613ZM286.557 367.328H290.237C289.725 370.368 287.485 372.32 283.901 372.32C279.741 372.32 276.957 369.28 276.957 364.864C276.957 360.544 279.837 357.376 283.837 357.376C288.029 357.376 290.333 360.288 290.333 364.48V365.696H280.797C280.925 367.84 282.141 369.12 283.901 369.12C285.245 369.12 286.237 368.544 286.557 367.328ZM283.869 360.608C282.333 360.608 281.245 361.536 280.893 363.296H286.429C286.397 361.792 285.501 360.608 283.869 360.608ZM305.407 357.696L300.511 364.608L305.727 372H301.343L298.271 367.52L295.167 372H291.007L296.159 364.704L291.295 357.696H295.679L298.431 361.76L301.247 357.696H305.407ZM308.561 367.68V360.896H306.385V357.696H308.561V353.824H312.497V357.696H315.633V360.896H312.497V367.168C312.497 368.288 313.105 368.8 314.129 368.8C314.737 368.8 315.409 368.608 315.857 368.32V371.84C315.313 372.128 314.353 372.288 313.297 372.288C310.385 372.288 308.561 370.848 308.561 367.68Z" fill="#F2994A"/>
<path d="M475.318 352.352H479.414V372H475.318V363.744H466.422V372H462.326V352.352H466.422V360.16H475.318V352.352ZM491.745 367.328H495.425C494.913 370.368 492.673 372.32 489.089 372.32C484.929 372.32 482.145 369.28 482.145 364.864C482.145 360.544 485.025 357.376 489.025 357.376C493.217 357.376 495.521 360.288 495.521 364.48V365.696H485.985C486.113 367.84 487.329 369.12 489.089 369.12C490.433 369.12 491.425 368.544 491.745 367.328ZM489.057 360.608C487.521 360.608 486.433 361.536 486.081 363.296H491.617C491.585 361.792 490.689 360.608 489.057 360.608ZM509.816 372H506.008V371.232C505.528 371.712 504.088 372.256 502.52 372.256C499.64 372.256 497.208 370.592 497.208 367.616C497.208 364.896 499.64 363.04 502.744 363.04C503.992 363.04 505.432 363.456 506.008 363.872V362.816C506.008 361.6 505.272 360.608 503.672 360.608C502.552 360.608 501.88 361.12 501.56 361.952H497.784C498.2 359.36 500.536 357.376 503.8 357.376C507.608 357.376 509.816 359.456 509.816 362.88V372ZM506.008 368.096V367.072C505.656 366.304 504.568 365.824 503.416 365.824C502.168 365.824 500.888 366.368 500.888 367.584C500.888 368.832 502.168 369.344 503.416 369.344C504.568 369.344 505.656 368.864 506.008 368.096ZM522.225 372V370.816C521.585 371.584 520.177 372.32 518.641 372.32C514.481 372.32 512.145 368.96 512.145 364.864C512.145 360.768 514.481 357.376 518.641 357.376C520.177 357.376 521.585 358.112 522.225 358.88V351.2H526.225V372H522.225ZM522.225 367.2V362.496C521.777 361.536 520.689 360.832 519.536 360.832C517.393 360.832 516.113 362.56 516.113 364.864C516.113 367.136 517.393 368.864 519.536 368.864C520.72 368.864 521.777 368.192 522.225 367.2ZM533.602 357.696V372H529.634V357.696H533.602ZM533.954 353.568C533.954 354.912 532.866 355.84 531.618 355.84C530.338 355.84 529.25 354.912 529.25 353.568C529.25 352.256 530.338 351.296 531.618 351.296C532.866 351.296 533.954 352.256 533.954 353.568ZM537.072 372V357.696H541.04V359.008C541.808 358.112 543.216 357.376 544.88 357.376C548.112 357.376 549.936 359.488 549.936 362.656V372H545.968V363.488C545.968 361.984 545.2 360.96 543.632 360.96C542.416 360.96 541.36 361.696 541.04 362.944V372H537.072ZM562.348 371.04V370.208C561.708 370.976 560.396 371.68 558.828 371.68C554.7 371.68 552.332 368.352 552.332 364.512C552.332 360.704 554.7 357.376 558.828 357.376C560.396 357.376 561.708 358.08 562.348 358.816V357.696H566.284V370.432C566.284 375.328 563.308 377.6 559.276 377.6C555.564 377.6 553.036 375.712 552.62 372.512H556.46C556.78 373.856 557.74 374.528 559.276 374.528C561.292 374.528 562.348 373.344 562.348 371.04ZM562.348 366.848V362.176C561.868 361.376 560.844 360.704 559.66 360.704C557.548 360.704 556.3 362.304 556.3 364.512C556.3 366.752 557.548 368.352 559.66 368.352C560.844 368.352 561.868 367.68 562.348 366.848Z" fill="#F2994A"/>
<path d="M247.147 560.176C247.147 554.16 251.051 550.032 256.299 550.032C260.939 550.032 263.787 552.752 264.523 556.688H260.459C259.787 554.896 258.571 553.68 256.299 553.68C253.163 553.68 251.307 556.432 251.307 560.176C251.307 563.888 253.163 566.672 256.299 566.672C258.571 566.672 259.787 565.456 260.459 563.632H264.523C263.787 567.6 260.939 570.32 256.299 570.32C251.051 570.32 247.147 566.192 247.147 560.176ZM278.847 570H275.039V569.232C274.559 569.712 273.119 570.256 271.551 570.256C268.671 570.256 266.239 568.592 266.239 565.616C266.239 562.896 268.671 561.04 271.775 561.04C273.023 561.04 274.463 561.456 275.039 561.872V560.816C275.039 559.6 274.303 558.608 272.703 558.608C271.583 558.608 270.911 559.12 270.591 559.952H266.815C267.231 557.36 269.567 555.376 272.831 555.376C276.639 555.376 278.847 557.456 278.847 560.88V570ZM275.039 566.096V565.072C274.687 564.304 273.599 563.824 272.447 563.824C271.199 563.824 269.919 564.368 269.919 565.584C269.919 566.832 271.199 567.344 272.447 567.344C273.599 567.344 274.687 566.864 275.039 566.096ZM286.04 549.2V570H282.072V549.2H286.04ZM293.477 549.2V570H289.509V549.2H293.477ZM310.067 562.864C310.067 567.248 307.219 570.32 303.059 570.32C298.899 570.32 296.051 567.248 296.051 562.864C296.051 558.448 298.899 555.376 303.059 555.376C307.219 555.376 310.067 558.448 310.067 562.864ZM306.131 562.864C306.131 560.464 305.043 558.736 303.059 558.736C301.075 558.736 299.987 560.464 299.987 562.864C299.987 565.232 301.075 566.96 303.059 566.96C305.043 566.96 306.131 565.232 306.131 562.864ZM325.275 555.696V570H321.307V568.688C320.507 569.584 319.131 570.32 317.467 570.32C314.267 570.32 312.443 568.208 312.443 565.04V555.696H316.411V564.24C316.411 565.744 317.147 566.768 318.715 566.768C319.931 566.768 320.987 566.032 321.275 564.784V555.696H325.275ZM329.561 565.68V558.896H327.385V555.696H329.561V551.824H333.497V555.696H336.633V558.896H333.497V565.168C333.497 566.288 334.105 566.8 335.129 566.8C335.737 566.8 336.409 566.608 336.857 566.32V569.84C336.313 570.128 335.353 570.288 334.297 570.288C331.385 570.288 329.561 568.848 329.561 565.68Z" fill="#F2994A"/>
<path d="M481.453 550.352V570H477.357V550.352H481.453ZM496.465 557.2C497.393 556.176 498.769 555.376 500.785 555.376C503.729 555.376 505.489 557.424 505.489 560.656V570H501.521V561.488C501.521 559.952 500.849 558.928 499.472 558.928C498.449 558.928 497.521 559.568 497.265 560.784V570H493.265V561.488C493.265 559.952 492.625 558.928 491.249 558.928C490.225 558.928 489.265 559.568 489.009 560.784V570H485.041V555.696H489.009V556.88C489.713 555.984 491.025 555.376 492.625 555.376C494.321 555.376 495.665 556.144 496.465 557.2ZM520.535 570H516.727V569.232C516.247 569.712 514.807 570.256 513.239 570.256C510.359 570.256 507.927 568.592 507.927 565.616C507.927 562.896 510.359 561.04 513.463 561.04C514.711 561.04 516.151 561.456 516.727 561.872V560.816C516.727 559.6 515.991 558.608 514.391 558.608C513.271 558.608 512.599 559.12 512.279 559.952H508.503C508.919 557.36 511.255 555.376 514.519 555.376C518.327 555.376 520.535 557.456 520.535 560.88V570ZM516.727 566.096V565.072C516.375 564.304 515.286 563.824 514.135 563.824C512.887 563.824 511.607 564.368 511.607 565.584C511.607 566.832 512.887 567.344 514.135 567.344C515.286 567.344 516.375 566.864 516.727 566.096ZM532.879 569.04V568.208C532.239 568.976 530.927 569.68 529.359 569.68C525.231 569.68 522.863 566.352 522.863 562.512C522.863 558.704 525.231 555.376 529.359 555.376C530.927 555.376 532.239 556.08 532.879 556.816V555.696H536.815V568.432C536.815 573.328 533.839 575.6 529.807 575.6C526.095 575.6 523.567 573.712 523.151 570.512H526.991C527.311 571.856 528.271 572.528 529.807 572.528C531.823 572.528 532.879 571.344 532.879 569.04ZM532.879 564.848V560.176C532.399 559.376 531.375 558.704 530.191 558.704C528.079 558.704 526.831 560.304 526.831 562.512C526.831 564.752 528.079 566.352 530.191 566.352C531.375 566.352 532.399 565.68 532.879 564.848ZM548.963 565.328H552.643C552.131 568.368 549.891 570.32 546.307 570.32C542.147 570.32 539.363 567.28 539.363 562.864C539.363 558.544 542.243 555.376 546.243 555.376C550.435 555.376 552.739 558.288 552.739 562.48V563.696H543.203C543.331 565.84 544.547 567.12 546.307 567.12C547.651 567.12 548.643 566.544 548.963 565.328ZM546.275 558.608C544.739 558.608 543.651 559.536 543.299 561.296H548.835C548.803 559.792 547.907 558.608 546.275 558.608Z" fill="#F2994A"/>
<path d="M688.966 544.184H685.03V551H680.966V531.352H688.966C693.126 531.352 695.878 533.592 695.878 537.784C695.878 541.944 693.126 544.184 688.966 544.184ZM691.846 537.784C691.846 536.024 690.822 534.84 688.71 534.84H685.03V540.696H688.71C690.822 540.696 691.846 539.48 691.846 537.784ZM707.134 536.632V540.6C706.59 540.28 705.886 540.12 705.15 540.12C703.806 540.12 702.718 540.824 702.43 542.136V551H698.462V536.696H702.43V538.104C703.038 537.08 704.222 536.376 705.63 536.376C706.302 536.376 706.91 536.504 707.134 536.632ZM722.457 543.864C722.457 548.248 719.609 551.32 715.449 551.32C711.289 551.32 708.441 548.248 708.441 543.864C708.441 539.448 711.289 536.376 715.449 536.376C719.609 536.376 722.457 539.448 722.457 543.864ZM718.521 543.864C718.521 541.464 717.433 539.736 715.449 539.736C713.465 539.736 712.377 541.464 712.377 543.864C712.377 546.232 713.465 547.96 715.449 547.96C717.433 547.96 718.521 546.232 718.521 543.864ZM734.303 551V549.816C733.663 550.584 732.255 551.32 730.719 551.32C726.559 551.32 724.223 547.96 724.223 543.864C724.223 539.768 726.559 536.376 730.719 536.376C732.255 536.376 733.663 537.112 734.303 537.88V530.2H738.303V551H734.303ZM734.303 546.2V541.496C733.855 540.536 732.767 539.832 731.615 539.832C729.471 539.832 728.191 541.56 728.191 543.864C728.191 546.136 729.471 547.864 731.615 547.864C732.799 547.864 733.855 547.192 734.303 546.2ZM754.384 536.696V551H750.416V549.688C749.616 550.584 748.24 551.32 746.576 551.32C743.376 551.32 741.552 549.208 741.552 546.04V536.696H745.52V545.24C745.52 546.744 746.256 547.768 747.824 547.768C749.04 547.768 750.096 547.032 750.384 545.784V536.696H754.384ZM756.91 543.864C756.91 539.416 759.726 536.376 763.79 536.376C767.374 536.376 769.646 538.488 770.062 541.528H766.158C765.934 540.44 765.07 539.768 763.79 539.768C761.966 539.768 760.846 541.432 760.846 543.864C760.846 546.264 761.966 547.928 763.79 547.928C765.07 547.928 765.934 547.256 766.158 546.168H770.062C769.646 549.24 767.374 551.32 763.79 551.32C759.726 551.32 756.91 548.28 756.91 543.864ZM773.483 546.68V539.896H771.307V536.696H773.483V532.824H777.419V536.696H780.555V539.896H777.419V546.168C777.419 547.288 778.027 547.8 779.051 547.8C779.659 547.8 780.331 547.608 780.779 547.32V550.84C780.235 551.128 779.275 551.288 778.219 551.288C775.307 551.288 773.483 549.848 773.483 546.68ZM700.631 579.176C700.631 573.16 704.535 569.032 709.783 569.032C714.423 569.032 717.271 571.752 718.007 575.688H713.943C713.271 573.896 712.055 572.68 709.783 572.68C706.647 572.68 704.791 575.432 704.791 579.176C704.791 582.888 706.647 585.672 709.783 585.672C712.055 585.672 713.271 584.456 713.943 582.632H718.007C717.271 586.6 714.423 589.32 709.783 589.32C704.535 589.32 700.631 585.192 700.631 579.176ZM732.331 589H728.523V588.232C728.043 588.712 726.603 589.256 725.035 589.256C722.155 589.256 719.723 587.592 719.723 584.616C719.723 581.896 722.155 580.04 725.259 580.04C726.507 580.04 727.947 580.456 728.523 580.872V579.816C728.523 578.6 727.787 577.608 726.187 577.608C725.067 577.608 724.395 578.12 724.075 578.952H720.299C720.715 576.36 723.051 574.376 726.315 574.376C730.123 574.376 732.331 576.456 732.331 579.88V589ZM728.523 585.096V584.072C728.171 583.304 727.083 582.824 725.931 582.824C724.683 582.824 723.403 583.368 723.403 584.584C723.403 585.832 724.683 586.344 725.931 586.344C727.083 586.344 728.171 585.864 728.523 585.096ZM744.228 574.632V578.6C743.684 578.28 742.98 578.12 742.244 578.12C740.9 578.12 739.812 578.824 739.524 580.136V589H735.556V574.696H739.524V576.104C740.132 575.08 741.316 574.376 742.724 574.376C743.396 574.376 744.004 574.504 744.228 574.632ZM755.615 589V587.816C754.975 588.584 753.567 589.32 752.031 589.32C747.871 589.32 745.535 585.96 745.535 581.864C745.535 577.768 747.871 574.376 752.031 574.376C753.567 574.376 754.975 575.112 755.615 575.88V568.2H759.615V589H755.615ZM755.615 584.2V579.496C755.167 578.536 754.079 577.832 752.927 577.832C750.783 577.832 749.503 579.56 749.503 581.864C749.503 584.136 750.783 585.864 752.927 585.864C754.111 585.864 755.167 585.192 755.615 584.2Z" fill="#F2994A"/>
<path d="M690.256 738.176C690.256 732.16 694.16 728.032 699.408 728.032C704.048 728.032 706.896 730.752 707.632 734.688H703.568C702.896 732.896 701.68 731.68 699.408 731.68C696.272 731.68 694.416 734.432 694.416 738.176C694.416 741.888 696.272 744.672 699.408 744.672C701.68 744.672 702.896 743.456 703.568 741.632H707.632C706.896 745.6 704.048 748.32 699.408 748.32C694.16 748.32 690.256 744.192 690.256 738.176ZM721.956 748H718.148V747.232C717.668 747.712 716.228 748.256 714.66 748.256C711.78 748.256 709.348 746.592 709.348 743.616C709.348 740.896 711.78 739.04 714.884 739.04C716.132 739.04 717.572 739.456 718.148 739.872V738.816C718.148 737.6 717.412 736.608 715.812 736.608C714.692 736.608 714.02 737.12 713.7 737.952H709.924C710.34 735.36 712.676 733.376 715.94 733.376C719.748 733.376 721.956 735.456 721.956 738.88V748ZM718.148 744.096V743.072C717.796 742.304 716.708 741.824 715.556 741.824C714.308 741.824 713.028 742.368 713.028 743.584C713.028 744.832 714.308 745.344 715.556 745.344C716.708 745.344 717.796 744.864 718.148 744.096ZM729.149 727.2V748H725.181V727.2H729.149ZM736.587 727.2V748H732.619V727.2H736.587ZM747.701 743.68V736.896H745.525V733.696H747.701V729.824H751.637V733.696H754.773V736.896H751.637V743.168C751.637 744.288 752.245 744.8 753.269 744.8C753.877 744.8 754.549 744.608 754.997 744.32V747.84C754.453 748.128 753.493 748.288 752.437 748.288C749.525 748.288 747.701 746.848 747.701 743.68ZM770.864 740.864C770.864 745.248 768.016 748.32 763.856 748.32C759.696 748.32 756.848 745.248 756.848 740.864C756.848 736.448 759.696 733.376 763.856 733.376C768.016 733.376 770.864 736.448 770.864 740.864ZM766.928 740.864C766.928 738.464 765.84 736.736 763.856 736.736C761.872 736.736 760.784 738.464 760.784 740.864C760.784 743.232 761.872 744.96 763.856 744.96C765.84 744.96 766.928 743.232 766.928 740.864ZM696.141 766.352H700.205L707.725 786H703.565L701.805 781.264H694.445L692.717 786H688.621L696.141 766.352ZM698.125 771.28L695.725 777.808H700.525L698.125 771.28ZM708.598 778.864C708.598 774.416 711.414 771.376 715.478 771.376C719.062 771.376 721.334 773.488 721.75 776.528H717.846C717.622 775.44 716.758 774.768 715.478 774.768C713.654 774.768 712.534 776.432 712.534 778.864C712.534 781.264 713.654 782.928 715.478 782.928C716.758 782.928 717.622 782.256 717.846 781.168H721.75C721.334 784.24 719.062 786.32 715.478 786.32C711.414 786.32 708.598 783.28 708.598 778.864ZM725.17 781.68V774.896H722.994V771.696H725.17V767.824H729.106V771.696H732.242V774.896H729.106V781.168C729.106 782.288 729.714 782.8 730.738 782.8C731.346 782.8 732.018 782.608 732.466 782.32V785.84C731.922 786.128 730.962 786.288 729.906 786.288C726.994 786.288 725.17 784.848 725.17 781.68ZM739.305 771.696V786H735.337V771.696H739.305ZM739.657 767.568C739.657 768.912 738.569 769.84 737.321 769.84C736.041 769.84 734.953 768.912 734.953 767.568C734.953 766.256 736.041 765.296 737.321 765.296C738.569 765.296 739.657 766.256 739.657 767.568ZM755.895 778.864C755.895 783.248 753.047 786.32 748.887 786.32C744.727 786.32 741.879 783.248 741.879 778.864C741.879 774.448 744.727 771.376 748.887 771.376C753.047 771.376 755.895 774.448 755.895 778.864ZM751.959 778.864C751.959 776.464 750.871 774.736 748.887 774.736C746.903 774.736 745.815 776.464 745.815 778.864C745.815 781.232 746.903 782.96 748.887 782.96C750.871 782.96 751.959 781.232 751.959 778.864ZM758.431 786V771.696H762.399V773.008C763.167 772.112 764.575 771.376 766.239 771.376C769.471 771.376 771.295 773.488 771.295 776.656V786H767.327V777.488C767.327 775.984 766.559 774.96 764.991 774.96C763.775 774.96 762.719 775.696 762.399 776.944V786H758.431Z" fill="#F2994A"/>
<path d="M490.089 748H486.121L478.761 728.352H483.081L488.169 742.56L493.257 728.352H497.481L490.089 748ZM509.691 748H505.883V747.232C505.403 747.712 503.963 748.256 502.395 748.256C499.515 748.256 497.083 746.592 497.083 743.616C497.083 740.896 499.515 739.04 502.619 739.04C503.867 739.04 505.307 739.456 505.883 739.872V738.816C505.883 737.6 505.147 736.608 503.547 736.608C502.427 736.608 501.755 737.12 501.435 737.952H497.659C498.075 735.36 500.411 733.376 503.675 733.376C507.483 733.376 509.691 735.456 509.691 738.88V748ZM505.883 744.096V743.072C505.531 742.304 504.443 741.824 503.291 741.824C502.043 741.824 500.763 742.368 500.763 743.584C500.763 744.832 502.043 745.344 503.291 745.344C504.443 745.344 505.531 744.864 505.883 744.096ZM516.884 727.2V748H512.916V727.2H516.884ZM533.025 733.696V748H529.057V746.688C528.257 747.584 526.881 748.32 525.217 748.32C522.017 748.32 520.193 746.208 520.193 743.04V733.696H524.161V742.24C524.161 743.744 524.897 744.768 526.465 744.768C527.681 744.768 528.737 744.032 529.025 742.784V733.696H533.025ZM545.151 743.328H548.831C548.319 746.368 546.079 748.32 542.495 748.32C538.335 748.32 535.551 745.28 535.551 740.864C535.551 736.544 538.431 733.376 542.431 733.376C546.623 733.376 548.927 736.288 548.927 740.48V741.696H539.391C539.519 743.84 540.735 745.12 542.495 745.12C543.839 745.12 544.831 744.544 545.151 743.328ZM542.463 736.608C540.927 736.608 539.839 737.536 539.487 739.296H545.023C544.991 737.792 544.095 736.608 542.463 736.608ZM493.497 779.184H489.561V786H485.497V766.352H493.497C497.657 766.352 500.409 768.592 500.409 772.784C500.409 776.944 497.657 779.184 493.497 779.184ZM496.377 772.784C496.377 771.024 495.353 769.84 493.241 769.84H489.561V775.696H493.241C495.353 775.696 496.377 774.48 496.377 772.784ZM511.666 771.632V775.6C511.122 775.28 510.418 775.12 509.682 775.12C508.338 775.12 507.25 775.824 506.962 777.136V786H502.994V771.696H506.962V773.104C507.57 772.08 508.754 771.376 510.162 771.376C510.834 771.376 511.442 771.504 511.666 771.632ZM526.989 778.864C526.989 783.248 524.141 786.32 519.981 786.32C515.821 786.32 512.973 783.248 512.973 778.864C512.973 774.448 515.821 771.376 519.981 771.376C524.141 771.376 526.989 774.448 526.989 778.864ZM523.053 778.864C523.053 776.464 521.965 774.736 519.981 774.736C517.997 774.736 516.909 776.464 516.909 778.864C516.909 781.232 517.997 782.96 519.981 782.96C521.965 782.96 523.053 781.232 523.053 778.864ZM533.493 784.816V791.28H529.525V771.696H533.493V772.88C534.133 772.112 535.541 771.376 537.077 771.376C541.237 771.376 543.605 774.832 543.605 778.864C543.605 782.896 541.237 786.32 537.077 786.32C535.541 786.32 534.133 785.584 533.493 784.816ZM533.493 776.496V781.2C533.973 782.192 535.029 782.864 536.181 782.864C538.325 782.864 539.605 781.136 539.605 778.864C539.605 776.56 538.325 774.832 536.181 774.832C534.997 774.832 533.973 775.536 533.493 776.496Z" fill="#F2994A"/>
<path d="M453.872 941.4H458.096C458.64 943.128 460.08 943.928 462 943.928C463.984 943.928 465.296 943.032 465.296 941.464C465.296 940.28 464.592 939.64 462.896 939.256L459.376 938.456C456.56 937.816 454.384 936.312 454.384 933.08C454.384 929.528 457.328 927.032 461.456 927.032C465.936 927.032 468.528 929.4 469.168 932.728H465.104C464.656 931.416 463.536 930.392 461.488 930.392C459.632 930.392 458.384 931.288 458.384 932.696C458.384 933.816 459.12 934.488 460.592 934.84L464.176 935.672C467.376 936.408 469.328 938.232 469.328 941.208C469.328 945.016 466.192 947.32 462.032 947.32C457.648 947.32 454.544 945.144 453.872 941.4ZM484.697 932.696V947H480.729V945.688C479.929 946.584 478.553 947.32 476.889 947.32C473.689 947.32 471.865 945.208 471.865 942.04V932.696H475.833V941.24C475.833 942.744 476.569 943.768 478.137 943.768C479.353 943.768 480.409 943.032 480.697 941.784V932.696H484.697ZM499.543 934.2C500.471 933.176 501.847 932.376 503.863 932.376C506.807 932.376 508.567 934.424 508.567 937.656V947H504.599V938.488C504.599 936.952 503.927 935.928 502.551 935.928C501.527 935.928 500.599 936.568 500.343 937.784V947H496.343V938.488C496.343 936.952 495.703 935.928 494.327 935.928C493.303 935.928 492.343 936.568 492.087 937.784V947H488.119V932.696H492.087V933.88C492.791 932.984 494.103 932.376 495.703 932.376C497.399 932.376 498.743 933.144 499.543 934.2ZM523.293 934.2C524.221 933.176 525.597 932.376 527.613 932.376C530.557 932.376 532.317 934.424 532.317 937.656V947H528.349V938.488C528.349 936.952 527.677 935.928 526.301 935.928C525.277 935.928 524.349 936.568 524.093 937.784V947H520.093V938.488C520.093 936.952 519.453 935.928 518.077 935.928C517.053 935.928 516.093 936.568 515.837 937.784V947H511.869V932.696H515.837V933.88C516.541 932.984 517.853 932.376 519.453 932.376C521.149 932.376 522.493 933.144 523.293 934.2ZM547.363 947H543.555V946.232C543.075 946.712 541.635 947.256 540.067 947.256C537.187 947.256 534.755 945.592 534.755 942.616C534.755 939.896 537.187 938.04 540.291 938.04C541.539 938.04 542.979 938.456 543.555 938.872V937.816C543.555 936.6 542.819 935.608 541.219 935.608C540.099 935.608 539.427 936.12 539.107 936.952H535.331C535.747 934.36 538.083 932.376 541.347 932.376C545.155 932.376 547.363 934.456 547.363 937.88V947ZM543.555 943.096V942.072C543.203 941.304 542.115 940.824 540.963 940.824C539.715 940.824 538.435 941.368 538.435 942.584C538.435 943.832 539.715 944.344 540.963 944.344C542.115 944.344 543.203 943.864 543.555 943.096ZM559.259 932.632V936.6C558.715 936.28 558.011 936.12 557.275 936.12C555.931 936.12 554.843 936.824 554.555 938.136V947H550.587V932.696H554.555V934.104C555.163 933.08 556.347 932.376 557.755 932.376C558.427 932.376 559.035 932.504 559.259 932.632ZM567.79 952.28H563.886L565.966 947.064L560.494 932.696H564.686L567.982 942.2L571.246 932.696H575.246L567.79 952.28ZM484.631 975.176C484.631 969.16 488.535 965.032 493.783 965.032C498.423 965.032 501.271 967.752 502.007 971.688H497.943C497.271 969.896 496.055 968.68 493.783 968.68C490.647 968.68 488.791 971.432 488.791 975.176C488.791 978.888 490.647 981.672 493.783 981.672C496.055 981.672 497.271 980.456 497.943 978.632H502.007C501.271 982.6 498.423 985.32 493.783 985.32C488.535 985.32 484.631 981.192 484.631 975.176ZM516.331 985H512.523V984.232C512.043 984.712 510.603 985.256 509.035 985.256C506.155 985.256 503.723 983.592 503.723 980.616C503.723 977.896 506.155 976.04 509.259 976.04C510.507 976.04 511.947 976.456 512.523 976.872V975.816C512.523 974.6 511.787 973.608 510.187 973.608C509.067 973.608 508.395 974.12 508.075 974.952H504.299C504.715 972.36 507.051 970.376 510.315 970.376C514.123 970.376 516.331 972.456 516.331 975.88V985ZM512.523 981.096V980.072C512.171 979.304 511.083 978.824 509.931 978.824C508.683 978.824 507.403 979.368 507.403 980.584C507.403 981.832 508.683 982.344 509.931 982.344C511.083 982.344 512.171 981.864 512.523 981.096ZM528.228 970.632V974.6C527.684 974.28 526.98 974.12 526.244 974.12C524.9 974.12 523.812 974.824 523.524 976.136V985H519.556V970.696H523.524V972.104C524.132 971.08 525.316 970.376 526.724 970.376C527.396 970.376 528.004 970.504 528.228 970.632ZM539.615 985V983.816C538.975 984.584 537.567 985.32 536.031 985.32C531.871 985.32 529.535 981.96 529.535 977.864C529.535 973.768 531.871 970.376 536.031 970.376C537.567 970.376 538.975 971.112 539.615 971.88V964.2H543.615V985H539.615ZM539.615 980.2V975.496C539.167 974.536 538.079 973.832 536.927 973.832C534.783 973.832 533.503 975.56 533.503 977.864C533.503 980.136 534.783 981.864 536.927 981.864C538.111 981.864 539.167 981.192 539.615 980.2Z" fill="#F2994A"/>
<path d="M235.997 760.184H232.061V767H227.997V747.352H235.997C240.157 747.352 242.909 749.592 242.909 753.784C242.909 757.944 240.157 760.184 235.997 760.184ZM238.877 753.784C238.877 752.024 237.853 750.84 235.741 750.84H232.061V756.696H235.741C237.853 756.696 238.877 755.48 238.877 753.784ZM256.644 767H252.836V766.232C252.356 766.712 250.916 767.256 249.348 767.256C246.468 767.256 244.036 765.592 244.036 762.616C244.036 759.896 246.468 758.04 249.572 758.04C250.82 758.04 252.26 758.456 252.836 758.872V757.816C252.836 756.6 252.1 755.608 250.5 755.608C249.38 755.608 248.708 756.12 248.388 756.952H244.612C245.028 754.36 247.364 752.376 250.628 752.376C254.436 752.376 256.644 754.456 256.644 757.88V767ZM252.836 763.096V762.072C252.484 761.304 251.396 760.824 250.244 760.824C248.996 760.824 247.716 761.368 247.716 762.584C247.716 763.832 248.996 764.344 250.244 764.344C251.396 764.344 252.484 763.864 252.836 763.096ZM268.541 752.632V756.6C267.997 756.28 267.293 756.12 266.557 756.12C265.213 756.12 264.125 756.824 263.837 758.136V767H259.869V752.696H263.837V754.104C264.445 753.08 265.629 752.376 267.037 752.376C267.709 752.376 268.317 752.504 268.541 752.632ZM282.394 767H278.586V766.232C278.106 766.712 276.666 767.256 275.098 767.256C272.218 767.256 269.786 765.592 269.786 762.616C269.786 759.896 272.218 758.04 275.322 758.04C276.57 758.04 278.01 758.456 278.586 758.872V757.816C278.586 756.6 277.85 755.608 276.25 755.608C275.13 755.608 274.458 756.12 274.138 756.952H270.362C270.778 754.36 273.114 752.376 276.378 752.376C280.186 752.376 282.394 754.456 282.394 757.88V767ZM278.586 763.096V762.072C278.234 761.304 277.146 760.824 275.994 760.824C274.746 760.824 273.466 761.368 273.466 762.584C273.466 763.832 274.746 764.344 275.994 764.344C277.146 764.344 278.234 763.864 278.586 763.096ZM294.739 766.04V765.208C294.099 765.976 292.787 766.68 291.219 766.68C287.091 766.68 284.723 763.352 284.723 759.512C284.723 755.704 287.091 752.376 291.219 752.376C292.787 752.376 294.099 753.08 294.739 753.816V752.696H298.675V765.432C298.675 770.328 295.699 772.6 291.667 772.6C287.955 772.6 285.427 770.712 285.011 767.512H288.851C289.171 768.856 290.131 769.528 291.667 769.528C293.683 769.528 294.739 768.344 294.739 766.04ZM294.739 761.848V757.176C294.259 756.376 293.235 755.704 292.051 755.704C289.939 755.704 288.691 757.304 288.691 759.512C288.691 761.752 289.939 763.352 292.051 763.352C293.235 763.352 294.259 762.68 294.739 761.848ZM310.791 752.632V756.6C310.247 756.28 309.543 756.12 308.807 756.12C307.463 756.12 306.375 756.824 306.087 758.136V767H302.119V752.696H306.087V754.104C306.695 753.08 307.879 752.376 309.287 752.376C309.959 752.376 310.567 752.504 310.791 752.632ZM324.644 767H320.836V766.232C320.356 766.712 318.916 767.256 317.348 767.256C314.468 767.256 312.036 765.592 312.036 762.616C312.036 759.896 314.468 758.04 317.572 758.04C318.82 758.04 320.26 758.456 320.836 758.872V757.816C320.836 756.6 320.1 755.608 318.5 755.608C317.38 755.608 316.708 756.12 316.388 756.952H312.612C313.028 754.36 315.364 752.376 318.628 752.376C322.436 752.376 324.644 754.456 324.644 757.88V767ZM320.836 763.096V762.072C320.484 761.304 319.396 760.824 318.244 760.824C316.996 760.824 315.716 761.368 315.716 762.584C315.716 763.832 316.996 764.344 318.244 764.344C319.396 764.344 320.484 763.864 320.836 763.096ZM331.837 765.816V772.28H327.869V752.696H331.837V753.88C332.477 753.112 333.885 752.376 335.421 752.376C339.581 752.376 341.949 755.832 341.949 759.864C341.949 763.896 339.581 767.32 335.421 767.32C333.885 767.32 332.477 766.584 331.837 765.816ZM331.837 757.496V762.2C332.317 763.192 333.373 763.864 334.525 763.864C336.669 763.864 337.949 762.136 337.949 759.864C337.949 757.56 336.669 755.832 334.525 755.832C333.341 755.832 332.317 756.536 331.837 757.496ZM344.462 767V746.2H348.43V754.008C349.198 753.112 350.606 752.376 352.27 752.376C355.502 752.376 357.326 754.488 357.326 757.656V767H353.358V758.488C353.358 756.984 352.59 755.96 351.022 755.96C349.806 755.96 348.75 756.696 348.43 757.944V767H344.462Z" fill="#F2994A"/>
<path d="M267.074 965H263.106L255.746 945.352H260.066L265.154 959.56L270.242 945.352H274.466L267.074 965ZM280.618 950.696V965H276.65V950.696H280.618ZM280.97 946.568C280.97 947.912 279.882 948.84 278.634 948.84C277.354 948.84 276.266 947.912 276.266 946.568C276.266 945.256 277.354 944.296 278.634 944.296C279.882 944.296 280.97 945.256 280.97 946.568ZM293.271 965V963.816C292.631 964.584 291.223 965.32 289.687 965.32C285.527 965.32 283.191 961.96 283.191 957.864C283.191 953.768 285.527 950.376 289.687 950.376C291.223 950.376 292.631 951.112 293.271 951.88V944.2H297.271V965H293.271ZM293.271 960.2V955.496C292.823 954.536 291.735 953.832 290.583 953.832C288.439 953.832 287.159 955.56 287.159 957.864C287.159 960.136 288.439 961.864 290.583 961.864C291.767 961.864 292.823 961.192 293.271 960.2ZM309.385 960.328H313.065C312.553 963.368 310.313 965.32 306.729 965.32C302.569 965.32 299.785 962.28 299.785 957.864C299.785 953.544 302.665 950.376 306.665 950.376C310.857 950.376 313.161 953.288 313.161 957.48V958.696H303.625C303.753 960.84 304.969 962.12 306.729 962.12C308.073 962.12 309.065 961.544 309.385 960.328ZM306.697 953.608C305.161 953.608 304.073 954.536 303.721 956.296H309.257C309.225 954.792 308.329 953.608 306.697 953.608ZM328.926 957.864C328.926 962.248 326.078 965.32 321.918 965.32C317.758 965.32 314.91 962.248 314.91 957.864C314.91 953.448 317.758 950.376 321.918 950.376C326.078 950.376 328.926 953.448 328.926 957.864ZM324.99 957.864C324.99 955.464 323.902 953.736 321.918 953.736C319.934 953.736 318.846 955.464 318.846 957.864C318.846 960.232 319.934 961.96 321.918 961.96C323.902 961.96 324.99 960.232 324.99 957.864Z" fill="#F2994A"/>
<path d="M716.76 960.328H720.44C719.928 963.368 717.688 965.32 714.104 965.32C709.944 965.32 707.16 962.28 707.16 957.864C707.16 953.544 710.04 950.376 714.04 950.376C718.232 950.376 720.536 953.288 720.536 957.48V958.696H711C711.128 960.84 712.344 962.12 714.104 962.12C715.448 962.12 716.44 961.544 716.76 960.328ZM714.072 953.608C712.536 953.608 711.448 954.536 711.096 956.296H716.632C716.6 954.792 715.704 953.608 714.072 953.608ZM723.92 960.68V953.896H721.744V950.696H723.92V946.824H727.856V950.696H730.992V953.896H727.856V960.168C727.856 961.288 728.464 961.8 729.488 961.8C730.096 961.8 730.768 961.608 731.216 961.32V964.84C730.672 965.128 729.712 965.288 728.656 965.288C725.744 965.288 723.92 963.848 723.92 960.68ZM733.066 957.864C733.066 953.416 735.882 950.376 739.946 950.376C743.53 950.376 745.802 952.488 746.218 955.528H742.314C742.09 954.44 741.226 953.768 739.946 953.768C738.122 953.768 737.002 955.432 737.002 957.864C737.002 960.264 738.122 961.928 739.946 961.928C741.226 961.928 742.09 961.256 742.314 960.168H746.218C745.802 963.24 743.53 965.32 739.946 965.32C735.882 965.32 733.066 962.28 733.066 957.864ZM747.817 962.664C747.817 961.224 748.905 960.136 750.313 960.136C751.721 960.136 752.809 961.224 752.809 962.664C752.809 964.104 751.721 965.224 750.313 965.224C748.905 965.224 747.817 964.104 747.817 962.664Z" fill="#F2994A"/>
<path d="M711.06 372V352.352H715.156V368.384H724.308V372H711.06ZM731.087 357.696V372H727.119V357.696H731.087ZM731.439 353.568C731.439 354.912 730.351 355.84 729.103 355.84C727.823 355.84 726.735 354.912 726.735 353.568C726.735 352.256 727.823 351.296 729.103 351.296C730.351 351.296 731.439 352.256 731.439 353.568ZM733.628 367.744H737.564C737.884 368.768 738.78 369.312 739.964 369.312C741.18 369.312 741.98 368.832 741.98 367.904C741.98 367.264 741.532 366.944 740.54 366.688L737.66 366.048C735.484 365.536 733.948 364.416 733.948 362.016C733.948 359.232 736.444 357.376 739.644 357.376C743.26 357.376 745.244 359.104 745.724 361.792H741.948C741.692 360.992 741.02 360.384 739.708 360.384C738.748 360.384 737.82 360.832 737.82 361.728C737.82 362.304 738.204 362.624 739.1 362.848L742.044 363.52C744.54 364.128 745.852 365.504 745.852 367.68C745.852 370.592 743.324 372.32 739.996 372.32C736.508 372.32 734.044 370.656 733.628 367.744ZM749.389 367.68V360.896H747.213V357.696H749.389V353.824H753.325V357.696H756.461V360.896H753.325V367.168C753.325 368.288 753.933 368.8 754.957 368.8C755.565 368.8 756.237 368.608 756.685 368.32V371.84C756.141 372.128 755.181 372.288 754.125 372.288C751.213 372.288 749.389 370.848 749.389 367.68Z" fill="#F2994A"/>
</svg>
