<svg width="1586" height="875" viewBox="0 0 1586 875" fill="none" xmlns="http://www.w3.org/2000/svg">
<rect x="305.5" y="11.5" width="246" height="213" stroke="#F2994A" stroke-width="5" stroke-miterlimit="16" stroke-linejoin="round" stroke-dasharray="10 10" style="mix-blend-mode:multiply"/>
<rect x="332.5" y="37.5" width="191" height="161" stroke="#F2994A" stroke-width="3"/>
<path d="M127.063 124.776H121.159V135H115.063V105.528H127.063C133.303 105.528 137.431 108.888 137.431 115.176C137.431 121.416 133.303 124.776 127.063 124.776ZM131.383 115.176C131.383 112.536 129.847 110.76 126.679 110.76H121.159V119.544H126.679C129.847 119.544 131.383 117.72 131.383 115.176ZM157.833 135H152.121V133.848C151.401 134.568 149.241 135.384 146.889 135.384C142.569 135.384 138.921 132.888 138.921 128.424C138.921 124.344 142.569 121.56 147.225 121.56C149.097 121.56 151.257 122.184 152.121 122.808V121.224C152.121 119.4 151.017 117.912 148.617 117.912C146.937 117.912 145.929 118.68 145.449 119.928H139.785C140.409 116.04 143.913 113.064 148.809 113.064C154.521 113.064 157.833 116.184 157.833 121.32V135ZM152.121 129.144V127.608C151.593 126.456 149.961 125.736 148.233 125.736C146.361 125.736 144.441 126.552 144.441 128.376C144.441 130.248 146.361 131.016 148.233 131.016C149.961 131.016 151.593 130.296 152.121 129.144ZM176.246 135V133.224C175.286 134.376 173.174 135.48 170.87 135.48C164.63 135.48 161.126 130.44 161.126 124.296C161.126 118.152 164.63 113.064 170.87 113.064C173.174 113.064 175.286 114.168 176.246 115.32V103.8H182.246V135H176.246ZM176.246 127.8V120.744C175.574 119.304 173.942 118.248 172.214 118.248C168.998 118.248 167.078 120.84 167.078 124.296C167.078 127.704 168.998 130.296 172.214 130.296C173.99 130.296 175.574 129.288 176.246 127.8ZM200.937 135V133.224C199.977 134.376 197.865 135.48 195.561 135.48C189.321 135.48 185.817 130.44 185.817 124.296C185.817 118.152 189.321 113.064 195.561 113.064C197.865 113.064 199.977 114.168 200.937 115.32V103.8H206.937V135H200.937ZM200.937 127.8V120.744C200.265 119.304 198.633 118.248 196.905 118.248C193.689 118.248 191.769 120.84 191.769 124.296C191.769 127.704 193.689 130.296 196.905 130.296C198.681 130.296 200.265 129.288 200.937 127.8ZM217.803 113.544V135H211.851V113.544H217.803ZM218.331 107.352C218.331 109.368 216.699 110.76 214.827 110.76C212.907 110.76 211.275 109.368 211.275 107.352C211.275 105.384 212.907 103.944 214.827 103.944C216.699 103.944 218.331 105.384 218.331 107.352ZM222.808 135V113.544H228.76V115.512C229.912 114.168 232.024 113.064 234.52 113.064C239.368 113.064 242.104 116.232 242.104 120.984V135H236.152V122.232C236.152 119.976 235 118.44 232.648 118.44C230.824 118.44 229.24 119.544 228.76 121.416V135H222.808ZM260.522 133.56V132.312C259.562 133.464 257.594 134.52 255.242 134.52C249.05 134.52 245.498 129.528 245.498 123.768C245.498 118.056 249.05 113.064 255.242 113.064C257.594 113.064 259.562 114.12 260.522 115.224V113.544H266.426V132.648C266.426 139.992 261.962 143.4 255.914 143.4C250.346 143.4 246.554 140.568 245.93 135.768H251.69C252.17 137.784 253.61 138.792 255.914 138.792C258.938 138.792 260.522 137.016 260.522 133.56ZM260.522 127.272V120.264C259.802 119.064 258.266 118.056 256.49 118.056C253.322 118.056 251.45 120.456 251.45 123.768C251.45 127.128 253.322 129.528 256.49 129.528C258.266 129.528 259.802 128.52 260.522 127.272Z" fill="#F2994A"/>
<rect x="324.5" y="296.5" width="208" height="181" stroke="#F2994A" stroke-width="5" stroke-miterlimit="16" stroke-linejoin="round" style="mix-blend-mode:multiply"/>
<rect x="332.5" y="306.5" width="191" height="161" stroke="#F2994A" stroke-width="3"/>
<path d="M159.613 388.784C162.397 389.696 164.413 392.432 164.413 395.648C164.413 401.072 160.669 404 154.525 404H142.285V374.528H153.565C159.709 374.528 163.501 377.264 163.501 382.544C163.501 385.712 161.773 388.016 159.613 388.784ZM148.189 386.624H153.181C156.109 386.624 157.645 385.472 157.645 383.12C157.645 380.768 156.109 379.712 153.181 379.712H148.189V386.624ZM148.189 391.424V398.816H153.997C156.877 398.816 158.413 397.376 158.413 395.12C158.413 392.816 156.877 391.424 153.997 391.424H148.189ZM188.056 393.296C188.056 399.872 183.784 404.48 177.544 404.48C171.304 404.48 167.032 399.872 167.032 393.296C167.032 386.672 171.304 382.064 177.544 382.064C183.784 382.064 188.056 386.672 188.056 393.296ZM182.152 393.296C182.152 389.696 180.52 387.104 177.544 387.104C174.568 387.104 172.936 389.696 172.936 393.296C172.936 396.848 174.568 399.44 177.544 399.44C180.52 399.44 182.152 396.848 182.152 393.296ZM204.669 382.448V388.4C203.853 387.92 202.797 387.68 201.693 387.68C199.677 387.68 198.045 388.736 197.613 390.704V404H191.661V382.544H197.613V384.656C198.525 383.12 200.301 382.064 202.413 382.064C203.421 382.064 204.333 382.256 204.669 382.448ZM221.549 404V402.224C220.589 403.376 218.477 404.48 216.173 404.48C209.933 404.48 206.429 399.44 206.429 393.296C206.429 387.152 209.933 382.064 216.173 382.064C218.477 382.064 220.589 383.168 221.549 384.32V372.8H227.549V404H221.549ZM221.549 396.8V389.744C220.877 388.304 219.245 387.248 217.517 387.248C214.301 387.248 212.381 389.84 212.381 393.296C212.381 396.704 214.301 399.296 217.517 399.296C219.293 399.296 220.877 398.288 221.549 396.8ZM245.52 396.992H251.04C250.272 401.552 246.912 404.48 241.536 404.48C235.296 404.48 231.12 399.92 231.12 393.296C231.12 386.816 235.44 382.064 241.44 382.064C247.728 382.064 251.184 386.432 251.184 392.72V394.544H236.88C237.072 397.76 238.896 399.68 241.536 399.68C243.552 399.68 245.04 398.816 245.52 396.992ZM241.488 386.912C239.184 386.912 237.552 388.304 237.024 390.944H245.328C245.28 388.688 243.936 386.912 241.488 386.912ZM267.772 382.448V388.4C266.956 387.92 265.9 387.68 264.796 387.68C262.78 387.68 261.148 388.736 260.716 390.704V404H254.764V382.544H260.716V384.656C261.628 383.12 263.404 382.064 265.516 382.064C266.524 382.064 267.436 382.256 267.772 382.448Z" fill="#F2994A"/>
<rect x="324.5" y="569.5" width="208" height="181" rx="14.5" stroke="#F2994A" stroke-width="5" stroke-miterlimit="16" stroke-linejoin="round" style="mix-blend-mode:multiply"/>
<rect x="333.5" y="579.5" width="190" height="162" stroke="#F2994A" stroke-width="3"/>
<path d="M20.2475 660.784C23.0315 661.696 25.0475 664.432 25.0475 667.648C25.0475 673.072 21.3035 676 15.1595 676H2.91949V646.528H14.1995C20.3435 646.528 24.1355 649.264 24.1355 654.544C24.1355 657.712 22.4075 660.016 20.2475 660.784ZM8.82349 658.624H13.8155C16.7435 658.624 18.2795 657.472 18.2795 655.12C18.2795 652.768 16.7435 651.712 13.8155 651.712H8.82349V658.624ZM8.82349 663.424V670.816H14.6315C17.5115 670.816 19.0475 669.376 19.0475 667.12C19.0475 664.816 17.5115 663.424 14.6315 663.424H8.82349ZM48.6907 665.296C48.6907 671.872 44.4187 676.48 38.1787 676.48C31.9387 676.48 27.6667 671.872 27.6667 665.296C27.6667 658.672 31.9387 654.064 38.1787 654.064C44.4187 654.064 48.6907 658.672 48.6907 665.296ZM42.7867 665.296C42.7867 661.696 41.1547 659.104 38.1787 659.104C35.2027 659.104 33.5707 661.696 33.5707 665.296C33.5707 668.848 35.2027 671.44 38.1787 671.44C41.1547 671.44 42.7867 668.848 42.7867 665.296ZM65.3031 654.448V660.4C64.4871 659.92 63.4311 659.68 62.3271 659.68C60.3111 659.68 58.6791 660.736 58.2471 662.704V676H52.2951V654.544H58.2471V656.656C59.1591 655.12 60.9351 654.064 63.0471 654.064C64.0551 654.064 64.9671 654.256 65.3031 654.448ZM82.1836 676V674.224C81.2236 675.376 79.1116 676.48 76.8076 676.48C70.5676 676.48 67.0636 671.44 67.0636 665.296C67.0636 659.152 70.5676 654.064 76.8076 654.064C79.1116 654.064 81.2236 655.168 82.1836 656.32V644.8H88.1836V676H82.1836ZM82.1836 668.8V661.744C81.5116 660.304 79.8796 659.248 78.1516 659.248C74.9356 659.248 73.0156 661.84 73.0156 665.296C73.0156 668.704 74.9356 671.296 78.1516 671.296C79.9276 671.296 81.5116 670.288 82.1836 668.8ZM106.154 668.992H111.674C110.906 673.552 107.546 676.48 102.17 676.48C95.9302 676.48 91.7542 671.92 91.7542 665.296C91.7542 658.816 96.0742 654.064 102.074 654.064C108.362 654.064 111.818 658.432 111.818 664.72V666.544H97.5142C97.7062 669.76 99.5302 671.68 102.17 671.68C104.186 671.68 105.674 670.816 106.154 668.992ZM102.122 658.912C99.8182 658.912 98.1862 660.304 97.6582 662.944H105.962C105.914 660.688 104.57 658.912 102.122 658.912ZM128.406 654.448V660.4C127.59 659.92 126.534 659.68 125.43 659.68C123.414 659.68 121.782 660.736 121.35 662.704V676H115.398V654.544H121.35V656.656C122.262 655.12 124.038 654.064 126.15 654.064C127.158 654.064 128.07 654.256 128.406 654.448ZM151.55 665.008H148.334V676H142.238V646.528H154.382C160.574 646.528 164.702 649.84 164.702 655.888C164.702 660.592 162.11 663.568 157.982 664.576L165.758 676H158.846L151.55 665.008ZM148.334 651.76V659.968H153.998C157.07 659.968 158.654 658.336 158.654 655.888C158.654 653.392 157.07 651.76 153.998 651.76H148.334ZM186.414 676H180.702V674.848C179.982 675.568 177.822 676.384 175.47 676.384C171.15 676.384 167.502 673.888 167.502 669.424C167.502 665.344 171.15 662.56 175.806 662.56C177.678 662.56 179.838 663.184 180.702 663.808V662.224C180.702 660.4 179.598 658.912 177.198 658.912C175.518 658.912 174.51 659.68 174.03 660.928H168.366C168.99 657.04 172.494 654.064 177.39 654.064C183.102 654.064 186.414 657.184 186.414 662.32V676ZM180.702 670.144V668.608C180.174 667.456 178.542 666.736 176.814 666.736C174.942 666.736 173.022 667.552 173.022 669.376C173.022 671.248 174.942 672.016 176.814 672.016C178.542 672.016 180.174 671.296 180.702 670.144ZM204.827 676V674.224C203.867 675.376 201.755 676.48 199.451 676.48C193.211 676.48 189.707 671.44 189.707 665.296C189.707 659.152 193.211 654.064 199.451 654.064C201.755 654.064 203.867 655.168 204.827 656.32V644.8H210.827V676H204.827ZM204.827 668.8V661.744C204.155 660.304 202.523 659.248 200.795 659.248C197.579 659.248 195.659 661.84 195.659 665.296C195.659 668.704 197.579 671.296 200.795 671.296C202.571 671.296 204.155 670.288 204.827 668.8ZM221.694 654.544V676H215.742V654.544H221.694ZM222.222 648.352C222.222 650.368 220.59 651.76 218.718 651.76C216.798 651.76 215.166 650.368 215.166 648.352C215.166 646.384 216.798 644.944 218.718 644.944C220.59 644.944 222.222 646.384 222.222 648.352ZM245.706 654.544V676H239.754V674.032C238.554 675.376 236.49 676.48 233.994 676.48C229.194 676.48 226.458 673.312 226.458 668.56V654.544H232.41V667.36C232.41 669.616 233.514 671.152 235.866 671.152C237.69 671.152 239.274 670.048 239.706 668.176V654.544H245.706ZM249.247 669.616H255.151C255.631 671.152 256.975 671.968 258.751 671.968C260.575 671.968 261.775 671.248 261.775 669.856C261.775 668.896 261.103 668.416 259.615 668.032L255.295 667.072C252.031 666.304 249.727 664.624 249.727 661.024C249.727 656.848 253.471 654.064 258.271 654.064C263.695 654.064 266.671 656.656 267.391 660.688H261.727C261.343 659.488 260.335 658.576 258.367 658.576C256.927 658.576 255.535 659.248 255.535 660.592C255.535 661.456 256.111 661.936 257.455 662.272L261.871 663.28C265.615 664.192 267.583 666.256 267.583 669.52C267.583 673.888 263.791 676.48 258.799 676.48C253.567 676.48 249.871 673.984 249.247 669.616Z" fill="#F2994A"/>
<rect x="977.5" y="27.5" width="208" height="181" fill="#F2994A" fill-opacity="0.25"/>
<rect x="977.5" y="27.5" width="208" height="181" stroke="#F2994A" stroke-width="5" stroke-miterlimit="16" stroke-linejoin="round" stroke-dasharray="10 10" style="mix-blend-mode:multiply"/>
<rect x="985.5" y="37.5" width="191" height="161" stroke="#F2994A" stroke-width="3"/>
<path d="M727.46 119.784C730.244 120.696 732.26 123.432 732.26 126.648C732.26 132.072 728.516 135 722.372 135H710.132V105.528H721.412C727.556 105.528 731.348 108.264 731.348 113.544C731.348 116.712 729.62 119.016 727.46 119.784ZM716.036 117.624H721.028C723.956 117.624 725.492 116.472 725.492 114.12C725.492 111.768 723.956 110.712 721.028 110.712H716.036V117.624ZM716.036 122.424V129.816H721.844C724.724 129.816 726.26 128.376 726.26 126.12C726.26 123.816 724.724 122.424 721.844 122.424H716.036ZM753.839 135H748.127V133.848C747.407 134.568 745.247 135.384 742.895 135.384C738.575 135.384 734.927 132.888 734.927 128.424C734.927 124.344 738.575 121.56 743.231 121.56C745.103 121.56 747.263 122.184 748.127 122.808V121.224C748.127 119.4 747.023 117.912 744.623 117.912C742.943 117.912 741.935 118.68 741.455 119.928H735.791C736.415 116.04 739.919 113.064 744.815 113.064C750.527 113.064 753.839 116.184 753.839 121.32V135ZM748.127 129.144V127.608C747.599 126.456 745.967 125.736 744.239 125.736C742.367 125.736 740.447 126.552 740.447 128.376C740.447 130.248 742.367 131.016 744.239 131.016C745.967 131.016 747.599 130.296 748.127 129.144ZM757.132 124.296C757.132 117.624 761.356 113.064 767.452 113.064C772.828 113.064 776.236 116.232 776.86 120.792H771.004C770.668 119.16 769.372 118.152 767.452 118.152C764.716 118.152 763.036 120.648 763.036 124.296C763.036 127.896 764.716 130.392 767.452 130.392C769.372 130.392 770.668 129.384 771.004 127.752H776.86C776.236 132.36 772.828 135.48 767.452 135.48C761.356 135.48 757.132 130.92 757.132 124.296ZM794.276 135L787.988 126.36L786.26 128.232V135H780.308V103.8H786.26V121.512L793.604 113.544H800.996L792.308 122.664L801.332 135H794.276ZM817.46 133.56V132.312C816.5 133.464 814.532 134.52 812.18 134.52C805.988 134.52 802.436 129.528 802.436 123.768C802.436 118.056 805.988 113.064 812.18 113.064C814.532 113.064 816.5 114.12 817.46 115.224V113.544H823.364V132.648C823.364 139.992 818.9 143.4 812.852 143.4C807.284 143.4 803.492 140.568 802.868 135.768H808.628C809.108 137.784 810.548 138.792 812.852 138.792C815.876 138.792 817.46 137.016 817.46 133.56ZM817.46 127.272V120.264C816.74 119.064 815.204 118.056 813.428 118.056C810.26 118.056 808.388 120.456 808.388 123.768C808.388 127.128 810.26 129.528 813.428 129.528C815.204 129.528 816.74 128.52 817.46 127.272ZM841.338 113.448V119.4C840.522 118.92 839.466 118.68 838.362 118.68C836.346 118.68 834.714 119.736 834.282 121.704V135H828.33V113.544H834.282V115.656C835.194 114.12 836.97 113.064 839.082 113.064C840.09 113.064 841.002 113.256 841.338 113.448ZM864.122 124.296C864.122 130.872 859.85 135.48 853.61 135.48C847.37 135.48 843.098 130.872 843.098 124.296C843.098 117.672 847.37 113.064 853.61 113.064C859.85 113.064 864.122 117.672 864.122 124.296ZM858.218 124.296C858.218 120.696 856.586 118.104 853.61 118.104C850.634 118.104 849.002 120.696 849.002 124.296C849.002 127.848 850.634 130.44 853.61 130.44C856.586 130.44 858.218 127.848 858.218 124.296ZM886.734 113.544V135H880.782V133.032C879.582 134.376 877.518 135.48 875.022 135.48C870.222 135.48 867.486 132.312 867.486 127.56V113.544H873.438V126.36C873.438 128.616 874.542 130.152 876.894 130.152C878.718 130.152 880.302 129.048 880.734 127.176V113.544H886.734ZM891.667 135V113.544H897.619V115.512C898.771 114.168 900.883 113.064 903.379 113.064C908.227 113.064 910.963 116.232 910.963 120.984V135H905.011V122.232C905.011 119.976 903.859 118.44 901.507 118.44C899.683 118.44 898.099 119.544 897.619 121.416V135H891.667ZM929.477 135V133.224C928.517 134.376 926.405 135.48 924.101 135.48C917.861 135.48 914.357 130.44 914.357 124.296C914.357 118.152 917.861 113.064 924.101 113.064C926.405 113.064 928.517 114.168 929.477 115.32V103.8H935.477V135H929.477ZM929.477 127.8V120.744C928.805 119.304 927.173 118.248 925.445 118.248C922.229 118.248 920.309 120.84 920.309 124.296C920.309 127.704 922.229 130.296 925.445 130.296C927.221 130.296 928.805 129.288 929.477 127.8Z" fill="#F2994A"/>
<rect x="985.5" y="296.5" width="208" height="181" fill="white"/>
<rect x="985.5" y="296.5" width="208" height="181" stroke="#F2994A" stroke-width="5" stroke-miterlimit="16" stroke-linejoin="round" stroke-dasharray="10 10" style="mix-blend-mode:multiply"/>
<g filter="url(#filter0_d_632_115)">
<rect x="985.5" y="296.5" width="208" height="181" stroke="white" stroke-width="5" stroke-miterlimit="16" stroke-linejoin="round" style="mix-blend-mode:multiply" shape-rendering="crispEdges"/>
</g>
<rect x="993.5" y="306.5" width="191" height="161" stroke="#F2994A" stroke-width="3"/>
<path d="M787.285 395.6H793.621C794.437 398.192 796.597 399.392 799.477 399.392C802.453 399.392 804.421 398.048 804.421 395.696C804.421 393.92 803.365 392.96 800.821 392.384L795.541 391.184C791.317 390.224 788.053 387.968 788.053 383.12C788.053 377.792 792.469 374.048 798.661 374.048C805.381 374.048 809.269 377.6 810.229 382.592H804.133C803.461 380.624 801.781 379.088 798.709 379.088C795.925 379.088 794.053 380.432 794.053 382.544C794.053 384.224 795.157 385.232 797.365 385.76L802.741 387.008C807.541 388.112 810.469 390.848 810.469 395.312C810.469 401.024 805.765 404.48 799.525 404.48C792.949 404.48 788.293 401.216 787.285 395.6ZM814.314 404V372.8H820.266V384.512C821.418 383.168 823.53 382.064 826.026 382.064C830.874 382.064 833.61 385.232 833.61 389.984V404H827.658V391.232C827.658 388.976 826.506 387.44 824.154 387.44C822.33 387.44 820.746 388.544 820.266 390.416V404H814.314ZM855.964 404H850.252V402.848C849.532 403.568 847.372 404.384 845.02 404.384C840.7 404.384 837.052 401.888 837.052 397.424C837.052 393.344 840.7 390.56 845.356 390.56C847.228 390.56 849.388 391.184 850.252 391.808V390.224C850.252 388.4 849.148 386.912 846.748 386.912C845.068 386.912 844.06 387.68 843.58 388.928H837.916C838.54 385.04 842.044 382.064 846.94 382.064C852.652 382.064 855.964 385.184 855.964 390.32V404ZM850.252 398.144V396.608C849.724 395.456 848.092 394.736 846.364 394.736C844.492 394.736 842.572 395.552 842.572 397.376C842.572 399.248 844.492 400.016 846.364 400.016C848.092 400.016 849.724 399.296 850.252 398.144ZM874.377 404V402.224C873.417 403.376 871.305 404.48 869.001 404.48C862.761 404.48 859.257 399.44 859.257 393.296C859.257 387.152 862.761 382.064 869.001 382.064C871.305 382.064 873.417 383.168 874.377 384.32V372.8H880.377V404H874.377ZM874.377 396.8V389.744C873.705 388.304 872.073 387.248 870.345 387.248C867.129 387.248 865.209 389.84 865.209 393.296C865.209 396.704 867.129 399.296 870.345 399.296C872.121 399.296 873.705 398.288 874.377 396.8ZM904.972 393.296C904.972 399.872 900.7 404.48 894.46 404.48C888.22 404.48 883.948 399.872 883.948 393.296C883.948 386.672 888.22 382.064 894.46 382.064C900.7 382.064 904.972 386.672 904.972 393.296ZM899.068 393.296C899.068 389.696 897.436 387.104 894.46 387.104C891.484 387.104 889.852 389.696 889.852 393.296C889.852 396.848 891.484 399.44 894.46 399.44C897.436 399.44 899.068 396.848 899.068 393.296ZM924.23 382.544L927.782 396.224L931.622 382.544H937.382L930.854 404H925.382L921.878 390.848L918.374 404H912.902L906.374 382.544H912.326L916.166 396.224L919.67 382.544H924.23Z" fill="#F2994A"/>
<defs>
<filter id="filter0_d_632_115" x="977" y="294" width="225" height="198" filterUnits="userSpaceOnUse" color-interpolation-filters="sRGB">
<feFlood flood-opacity="0" result="BackgroundImageFix"/>
<feColorMatrix in="SourceAlpha" type="matrix" values="0 0 0 0 0 0 0 0 0 0 0 0 0 0 0 0 0 0 127 0" result="hardAlpha"/>
<feOffset dy="6"/>
<feGaussianBlur stdDeviation="3"/>
<feComposite in2="hardAlpha" operator="out"/>
<feColorMatrix type="matrix" values="0 0 0 0 0 0 0 0 0 0 0 0 0 0 0 0 0 0 0.25 0"/>
<feBlend mode="normal" in2="BackgroundImageFix" result="effect1_dropShadow_632_115"/>
<feBlend mode="normal" in="SourceGraphic" in2="effect1_dropShadow_632_115" result="shape"/>
</filter>
</defs>
</svg>
